<?xml version="1.0" encoding="utf-8"?>
<!-- Generator: Adobe Illustrator 23.0.0, SVG Export Plug-In . SVG Version: 6.00 Build 0)  -->
<svg version="1.1" id="Layer_1" xmlns="http://www.w3.org/2000/svg" xmlns:xlink="http://www.w3.org/1999/xlink" x="0px" y="0px"
	 viewBox="0 0 60 60" style="enable-background:new 0 0 60 60;" xml:space="preserve">
<style type="text/css">
	.st0{fill:#F7FFF7;}
</style>
<g>
	<g>
		<g>
			<g id="SvgjsG1008_2_">
				<path class="st0" d="M59,37.2C55.1,53,39,62.6,23.2,58.7s-25.4-20-21.5-35.8C5.7,7,21.7-2.6,37.5,1.4C53.4,5.3,63,21.3,59,37.2
					C59,37.1,59,37.1,59,37.2z"/>
			</g>
		</g>
	</g>
	<g>
		<polygon points="16.8,49 22.3,39.5 27.8,30 33.3,20.4 34.2,18.9 34.6,20.4 36.2,26.7 34.4,30 28.9,39.5 23.4,49 30,49 35.5,39.5 
			38.3,34.5 39.7,39.5 42.2,49 48.1,49 45.6,39.5 43,30 42.4,27.5 46.4,20.4 40.5,20.4 40.3,19.7 38.2,11.9 37.9,10.9 32.2,10.9 
			32,11.1 26.7,20.4 21.2,30 15.7,39.5 10.2,49 		"/>
	</g>
</g>
</svg>
