<?xml version="1.0" encoding="utf-8"?>
<!-- Generator: Adobe Illustrator 23.0.0, SVG Export Plug-In . SVG Version: 6.00 Build 0)  -->
<svg version="1.1" xmlns="http://www.w3.org/2000/svg" xmlns:xlink="http://www.w3.org/1999/xlink" x="0px" y="0px"
	 viewBox="0 0 60 60" style="enable-background:new 0 0 60 60;" xml:space="preserve">
<style type="text/css">
	.st0{fill:#F7FFF7;}
	.st1{fill:#001524;}
</style>
<g id="Layer_1">
</g>
<g id="Layer_2">
	<g id="SvgjsG1008_1_">
		<path class="st0" d="M58.6,37.2c-3.9,15.8-20,25.4-35.8,21.5s-25.4-20-21.5-35.8C5.3,7,21.3-2.6,37.1,1.4
			C53,5.3,62.6,21.3,58.6,37.2C58.6,37.1,58.6,37.1,58.6,37.2z"/>
	</g>
	<g>
		<path id="symbol_2_" class="st1" d="M39.6,20.4c-1.5-3.3-4.8-4-8.9-3.3L29.4,12l-3.1,0.8l1.3,5.1c-0.8,0.2-1.7,0.4-2.5,0.6
			l-1.3-5.1l-3.1,0.8l1.3,5.1c-0.7,0.2-6.3,1.6-6.3,1.6l0.9,3.3c0,0,2.3-0.6,2.3-0.6c1.3-0.3,1.9,0.3,2.1,0.9l3.6,14
			c0,0.4,0,1.1-0.9,1.3c0.1,0-2.3,0.6-2.3,0.6l0.3,3.9c0,0,5.6-1.4,6.3-1.6l1.3,5.2l3.1-0.8L31.1,42c0.9-0.2,1.7-0.4,2.5-0.6
			l1.3,5.2l3.1-0.8l-1.3-5.2c4.8-1.2,8.2-4.2,7.5-8.8c-0.4-2.8-3.5-5.1-6-5.3C39.8,25.1,40.5,23.1,39.6,20.4L39.6,20.4z M38.1,32.6
			c0.6,4.6-5.7,5.1-7.8,5.7l-1.8-6.8C30.5,30.9,37,28.6,38.1,32.6z M34.3,23.3c0.7,4.1-4.8,4.5-6.5,5l-1.7-6.2
			C27.8,21.7,32.9,19.5,34.3,23.3z"/>
	</g>
</g>
</svg>
