<?xml version="1.0" encoding="utf-8"?>
<!-- Generator: Adobe Illustrator 23.0.0, SVG Export Plug-In . SVG Version: 6.00 Build 0)  -->
<svg version="1.1" xmlns="http://www.w3.org/2000/svg" xmlns:xlink="http://www.w3.org/1999/xlink" x="0px" y="0px"
	 viewBox="0 0 60 60" style="enable-background:new 0 0 60 60;" xml:space="preserve">
<style type="text/css">
	.st0{fill:#F7FFF7;}
	.st1{fill:#001524;}
</style>
<g id="Layer_1">
</g>
<g id="Layer_2">
	<g>
		<g id="SvgjsG1008_2_">
			<path class="st0" d="M58.6,37.2c-3.9,15.8-20,25.4-35.8,21.5s-25.4-20-21.5-35.8C5.3,7,21.3-2.6,37.1,1.4
				C53,5.3,62.6,21.3,58.6,37.2C58.6,37.1,58.6,37.1,58.6,37.2z"/>
		</g>
	</g>
	<g>
		<g id="Layer_x0020_1_1_">
			<g id="_1421344023328_1_">
				<path class="st1" d="M43.7,26.4c0.6-3.8-2.4-5.9-6.4-7.3l1.3-5.2l-3.2-0.8l-1.3,5.1c-0.8-0.2-1.7-0.4-2.5-0.6l1.3-5.1l-3.2-0.8
					l-1.3,5.2c-0.7-0.2-1.4-0.3-2-0.5l0,0l-4.4-1.1l-0.8,3.4c0,0,2.4,0.5,2.3,0.6c1.3,0.3,1.5,1.2,1.5,1.8l-1.5,5.9
					c0.1,0,0.2,0.1,0.3,0.1c-0.1,0-0.2-0.1-0.3-0.1l-2.1,8.3c-0.2,0.4-0.6,1-1.5,0.8c0,0-2.3-0.6-2.3-0.6l-1.6,3.6l4.1,1
					c0.8,0.2,1.5,0.4,2.3,0.6l-1.3,5.3l3.2,0.8l1.3-5.2c0.9,0.2,1.7,0.5,2.5,0.7L27,47.5l3.2,0.8l1.3-5.3c5.4,1,9.5,0.6,11.2-4.3
					c1.4-3.9-0.1-6.2-2.9-7.7C41.8,30.6,43.3,29.2,43.7,26.4L43.7,26.4L43.7,26.4z M36.5,36.6c-1,3.9-7.6,1.8-9.8,1.3l1.7-7
					C30.6,31.4,37.5,32.5,36.5,36.6L36.5,36.6z M37.5,26.4c-0.9,3.6-6.4,1.8-8.2,1.3l1.6-6.3C32.7,21.8,38.4,22.6,37.5,26.4
					L37.5,26.4z"/>
			</g>
		</g>
	</g>
</g>
</svg>
