<?xml version="1.0" encoding="utf-8"?>
<!-- Generator: Adobe Illustrator 23.0.0, SVG Export Plug-In . SVG Version: 6.00 Build 0)  -->
<svg version="1.1" xmlns="http://www.w3.org/2000/svg" xmlns:xlink="http://www.w3.org/1999/xlink" x="0px" y="0px"
	 viewBox="0 0 60 60" style="enable-background:new 0 0 60 60;" xml:space="preserve">
<style type="text/css">
	.st0{fill:#F7FFF7;}
	.st1{fill:#001524;}
</style>
<g id="Layer_1">
</g>
<g id="Layer_2">
	<g id="SvgjsG1008_1_">
		<path class="st0" d="M58.6,37.2c-3.9,15.8-20,25.4-35.8,21.5s-25.4-20-21.5-35.8C5.3,7,21.3-2.6,37.1,1.4
			C53,5.3,62.6,21.3,58.6,37.2C58.6,37.1,58.6,37.1,58.6,37.2z"/>
	</g>
	<g>
		<g id="Layer_2_2_">
			<g id="Layer_1-2_1_">
				<path class="st1" d="M20.7,29.9c-0.1,1.5,1.1,2.8,2.6,2.9c0.1,0,0.1,0,0.2,0c1.5,0,2.8-1.2,2.8-2.8c0-1.5-1.2-2.8-2.8-2.8
					C22,27.3,20.8,28.4,20.7,29.9z"/>
				<path class="st1" d="M10.4,29.2c-0.5,0-0.9,0.3-0.9,0.8c0,0.5,0.3,0.9,0.8,0.9c0.5,0,0.9-0.3,0.9-0.8
					C11.3,29.6,10.9,29.2,10.4,29.2L10.4,29.2z"/>
				<path class="st1" d="M20.6,13.8c0.4-0.2,0.6-0.8,0.4-1.2c-0.2-0.4-0.8-0.6-1.2-0.4c-0.4,0.2-0.6,0.8-0.4,1.2
					C19.6,13.9,20.1,14.1,20.6,13.8C20.6,13.8,20.6,13.8,20.6,13.8z"/>
				<path class="st1" d="M23.4,18.7c0.7-0.3,1-1.2,0.6-1.8c-0.3-0.7-1.2-1-1.8-0.6c-0.7,0.3-1,1.2-0.6,1.8S22.7,19.1,23.4,18.7z"/>
				<path class="st1" d="M13.9,22.1c0.5,0.3,1.2,0.2,1.6-0.3c0.3-0.5,0.2-1.2-0.3-1.6c-0.5-0.3-1.2-0.2-1.6,0.3l0,0
					C13.3,21,13.4,21.7,13.9,22.1z"/>
				<path class="st1" d="M15.6,28.7c-0.8,0-1.4,0.5-1.5,1.3c0,0.8,0.5,1.4,1.3,1.5c0.8,0,1.4-0.5,1.5-1.3l0,0
					C17,29.4,16.4,28.7,15.6,28.7z"/>
				<path class="st1" d="M14.1,37.9c-0.6,0.3-0.8,1-0.5,1.5c0.3,0.6,1,0.8,1.5,0.5c0.6-0.3,0.8-1,0.5-1.5l0,0
					C15.3,37.9,14.7,37.6,14.1,37.9L14.1,37.9z"/>
				<path class="st1" d="M19.5,25.8c0.8,0.5,1.8,0.3,2.2-0.5c0.5-0.8,0.3-1.8-0.5-2.2c-0.8-0.5-1.8-0.3-2.2,0.5
					C18.5,24.3,18.7,25.3,19.5,25.8L19.5,25.8z"/>
				<path class="st1" d="M36.4,18.6c0.6,0.4,1.5,0.2,1.9-0.4c0.4-0.6,0.2-1.5-0.4-1.9c-0.6-0.4-1.5-0.2-1.9,0.4l0,0
					C35.6,17.3,35.8,18.2,36.4,18.6L36.4,18.6z"/>
				<path class="st1" d="M39.3,13.8c0.4,0.3,1,0.2,1.2-0.3c0.3-0.4,0.2-1-0.3-1.2c-0.4-0.3-1-0.2-1.2,0.3
					C38.7,12.9,38.9,13.5,39.3,13.8L39.3,13.8z"/>
				<path class="st1" d="M36.7,27.2c-1.5-0.1-2.8,1.1-2.9,2.6c-0.1,1.5,1.1,2.8,2.6,2.9c0.1,0,0.1,0,0.2,0c1.5,0,2.8-1.2,2.8-2.8
					C39.3,28.5,38.1,27.3,36.7,27.2L36.7,27.2z"/>
				<path class="st1" d="M24.3,25.6c0.5,0.9,1.4,1.5,2.5,1.5c1.5,0,2.8-1.2,2.8-2.8c0-0.4-0.1-0.9-0.3-1.2c-0.7-1.4-2.4-1.9-3.7-1.2
					C24.1,22.6,23.6,24.3,24.3,25.6L24.3,25.6z"/>
				<path class="st1" d="M45.9,22.1c0.6-0.3,0.8-1,0.5-1.5c-0.3-0.6-1-0.8-1.5-0.5c-0.6,0.3-0.8,1-0.5,1.5
					C44.7,22.1,45.3,22.4,45.9,22.1L45.9,22.1z"/>
				<path class="st1" d="M38.9,23c-0.8,0.4-1.1,1.4-0.7,2.2c0.4,0.8,1.4,1.1,2.2,0.7c0.8-0.4,1.1-1.4,0.7-2.2
					C40.7,22.9,39.7,22.6,38.9,23z"/>
				<path class="st1" d="M29.9,13.3c0.6,0,1.2-0.4,1.2-1.1c0-0.6-0.4-1.2-1.1-1.2c-0.6,0-1.2,0.4-1.2,1.1
					C28.8,12.8,29.3,13.3,29.9,13.3L29.9,13.3z"/>
				<path class="st1" d="M29.9,20.5c0.9,0.1,1.7-0.6,1.7-1.5c0.1-0.9-0.6-1.7-1.5-1.7c-0.9-0.1-1.7,0.6-1.7,1.5S29,20.4,29.9,20.5
					L29.9,20.5z"/>
				<path class="st1" d="M21.1,37c0.8-0.4,1.1-1.4,0.7-2.2s-1.4-1.1-2.2-0.7c-0.8,0.4-1.1,1.4-0.7,2.2C19.3,37.1,20.3,37.4,21.1,37z
					"/>
				<path class="st1" d="M30.9,22.8c-0.8,1.3-0.5,3,0.8,3.8c1.3,0.8,3,0.5,3.8-0.8c0.8-1.3,0.5-3-0.8-3.8c-0.4-0.3-1-0.4-1.5-0.4
					C32.3,21.6,31.4,22.1,30.9,22.8z"/>
				<path class="st1" d="M35.7,34.4C35,33,33.4,32.5,32,33.2c-1.4,0.7-1.9,2.4-1.2,3.7c0.7,1.4,2.4,1.9,3.7,1.2l0,0
					C35.9,37.4,36.4,35.8,35.7,34.4C35.7,34.4,35.7,34.4,35.7,34.4z"/>
				<path class="st1" d="M40.5,34.2c-0.8-0.5-1.8-0.3-2.2,0.5c-0.5,0.8-0.3,1.8,0.5,2.2c0.8,0.5,1.8,0.3,2.2-0.5
					C41.5,35.7,41.3,34.7,40.5,34.2L40.5,34.2z"/>
				<path class="st1" d="M45.8,30c0-0.8-0.5-1.4-1.3-1.5c-0.8,0-1.4,0.5-1.5,1.3c0,0.8,0.5,1.4,1.3,1.5l0,0
					C45.1,31.4,45.8,30.8,45.8,30z"/>
				<path class="st1" d="M49.7,29.1c-0.5,0-0.9,0.3-0.9,0.8c0,0.5,0.3,0.9,0.8,0.9c0.5,0,0.9-0.3,0.9-0.8
					C50.5,29.5,50.1,29.1,49.7,29.1z"/>
				<path class="st1" d="M46.1,37.9c-0.5-0.3-1.2-0.2-1.6,0.3c-0.3,0.5-0.2,1.2,0.3,1.6c0.5,0.3,1.2,0.2,1.6-0.3
					C46.7,39,46.6,38.3,46.1,37.9L46.1,37.9z"/>
				<path class="st1" d="M20.7,46.2c-0.4-0.3-1-0.2-1.2,0.3c-0.3,0.4-0.2,1,0.3,1.2c0.4,0.3,1,0.2,1.2-0.3l0,0
					C21.3,47.1,21.1,46.5,20.7,46.2z"/>
				<path class="st1" d="M39.4,46.2c-0.4,0.2-0.6,0.8-0.4,1.2s0.8,0.6,1.2,0.4s0.6-0.8,0.4-1.2C40.4,46.1,39.9,45.9,39.4,46.2
					C39.4,46.2,39.4,46.2,39.4,46.2z"/>
				<path class="st1" d="M29.1,37.2c0.8-1.3,0.5-3-0.8-3.8c-1.3-0.8-3-0.5-3.8,0.8c-0.8,1.3-0.5,3,0.8,3.8c0.4,0.3,1,0.4,1.5,0.4
					C27.7,38.4,28.6,37.9,29.1,37.2z"/>
				<path class="st1" d="M23.6,41.4c-0.6-0.4-1.5-0.2-1.9,0.4s-0.2,1.5,0.4,1.9c0.6,0.4,1.5,0.2,1.9-0.4l0,0
					C24.4,42.7,24.2,41.8,23.6,41.4z"/>
				<path class="st1" d="M30,46.7c-0.6,0-1.2,0.4-1.2,1.1c0,0.6,0.4,1.2,1.1,1.2c0.6,0,1.2-0.4,1.2-1.1C31.1,47.2,30.6,46.7,30,46.7
					L30,46.7z"/>
				<path class="st1" d="M30,39.5c-0.9-0.1-1.7,0.6-1.7,1.5c-0.1,0.9,0.6,1.7,1.5,1.7c0.9,0,1.7-0.6,1.7-1.5
					C31.6,40.3,30.9,39.6,30,39.5L30,39.5z"/>
				<path class="st1" d="M36.6,41.3c-0.7,0.3-1,1.2-0.6,1.9c0.3,0.7,1.2,1,1.9,0.6c0.7-0.3,1-1.2,0.6-1.8
					C38.2,41.2,37.3,40.9,36.6,41.3L36.6,41.3z"/>
			</g>
		</g>
	</g>
</g>
</svg>
