<?xml version="1.0" encoding="utf-8"?>
<!-- Generator: Adobe Illustrator 23.0.0, SVG Export Plug-In . SVG Version: 6.00 Build 0)  -->
<svg version="1.1" xmlns="http://www.w3.org/2000/svg" xmlns:xlink="http://www.w3.org/1999/xlink" x="0px" y="0px"
	 viewBox="0 0 60 60" style="enable-background:new 0 0 60 60;" xml:space="preserve">
<style type="text/css">
	.st0{fill:#F7FFF7;}
	.st1{fill:#001524;}
</style>
<g id="Layer_1">
</g>
<g id="Layer_2">
	<g>
		<g>
			<g id="SvgjsG1008_2_">
				<path class="st0" d="M58.9,37.2C55,53,38.9,62.6,23.1,58.7s-25.4-20-21.5-35.8C5.6,7,21.6-2.6,37.4,1.4
					C53.3,5.3,62.9,21.3,58.9,37.2C58.9,37.1,58.9,37.1,58.9,37.2z"/>
			</g>
		</g>
		<g>
			<rect x="13.7" y="12" class="st1" width="31.7" height="33.6"/>
			<path class="st0" d="M29.7,5.2C16,5.2,4.9,16.3,4.9,30S16,54.8,29.7,54.8S54.5,43.7,54.5,30l0,0l0,0c0-13.6-11-24.7-24.6-24.8
				c0,0,0,0,0,0H29.7z M30.1,30.8l-2.6,8.7h13.8c0.4,0,0.7,0.3,0.7,0.7c0,0,0,0,0,0v0.2l-1.2,4.1c-0.1,0.4-0.5,0.7-0.9,0.7H18.9
				l3.5-12.1l-4,1.2l0.9-2.8l4-1.2l5-16.9c0.1-0.4,0.5-0.7,0.9-0.7h5.3c0.4,0,0.7,0.3,0.7,0.7c0,0,0,0,0,0v0.2L31,28l4-1.2l-0.8,2.9
				L30.1,30.8z"/>
		</g>
	</g>
</g>
</svg>
