<svg xmlns="http://www.w3.org/2000/svg" viewBox="0 0 60 60"><defs><style>.cls-1{fill:#f7fff7;}.cls-2{fill:#001524;}</style></defs><title>lumens</title><g id="Layer_2" data-name="Layer 2"><g id="SvgjsG1008"><path class="cls-1" d="M58.85,37.17a29.53,29.53,0,1,1-21.5-35.8,29.57,29.57,0,0,1,21.5,35.8Z"/></g><g id="Layer_1-2" data-name="Layer 1-2"><path class="cls-2" d="M44.06,17.41l-4.85,2.48L15.77,31.82A13.79,13.79,0,0,1,15.65,30,14,14,0,0,1,36.42,17.83l2.78-1.41.41-.22A17.05,17.05,0,0,0,12.55,30c0,.44,0,.87,0,1.3a3.11,3.11,0,0,1-1.69,3l-1.46.75v3.48l4.31-2.2h0l1.39-.71,1.38-.7h0l24.7-12.59L44,20.92,49.75,18V14.51Z"/><path class="cls-2" d="M49.75,21.48,17.93,37.68l-2.77,1.41L9.45,42v3.48l5.67-2.89L20,40.12,43.43,28.17A14,14,0,0,1,29.58,44a13.91,13.91,0,0,1-6.82-1.78l-.17.09-3,1.54A17.06,17.06,0,0,0,46.65,30c0-.43,0-.87,0-1.31a3.09,3.09,0,0,1,1.68-3L49.75,25Z"/></g></g></svg>