<?xml version="1.0" encoding="utf-8"?>
<!-- Generator: Adobe Illustrator 23.0.0, SVG Export Plug-In . SVG Version: 6.00 Build 0)  -->
<svg version="1.1" xmlns="http://www.w3.org/2000/svg" xmlns:xlink="http://www.w3.org/1999/xlink" x="0px" y="0px"
	 viewBox="0 0 60 60" style="enable-background:new 0 0 60 60;" xml:space="preserve">
<style type="text/css">
	.st0{display:none;}
	.st1{display:inline;}
	.st2{fill:#F7FFF7;}
	.st3{fill:#001524;}
	.st4{fill:none;}
	.st5{fill:#FF5F00;}
	.st6{fill:#EB001B;}
	.st7{fill:#F79E1B;}
</style>
<g id="Layer_1" class="st0">
</g>
<g id="Layer_2">
	<g class="st0">
		<g class="st1">
			<g id="SvgjsG1008_2_">
				<path class="st2" d="M58.9,37.2C55,53,38.9,62.6,23.1,58.7s-25.4-20-21.5-35.8C5.6,7,21.6-2.6,37.4,1.4
					C53.3,5.3,62.9,21.3,58.9,37.2C58.9,37.1,58.9,37.1,58.9,37.2z"/>
			</g>
		</g>
		<g class="st1">
			<rect x="13.7" y="12" class="st3" width="31.7" height="33.6"/>
			<path class="st2" d="M29.7,5.2C16,5.2,4.9,16.3,4.9,30S16,54.8,29.7,54.8S54.5,43.7,54.5,30l0,0l0,0c0-13.6-11-24.7-24.6-24.8
				c0,0,0,0,0,0H29.7z M30.1,30.8l-2.6,8.7h13.8c0.4,0,0.7,0.3,0.7,0.7c0,0,0,0,0,0v0.2l-1.2,4.1c-0.1,0.4-0.5,0.7-0.9,0.7H18.9
				l3.5-12.1l-4,1.2l0.9-2.8l4-1.2l5-16.9c0.1-0.4,0.5-0.7,0.9-0.7h5.3c0.4,0,0.7,0.3,0.7,0.7c0,0,0,0,0,0v0.2L31,28l4-1.2l-0.8,2.9
				L30.1,30.8z"/>
		</g>
	</g>
	<g>
		<g>
			<rect x="0" y="8.8" class="st4" width="59.9" height="42.5"/>
			<g>
				<rect x="23.8" y="18.9" class="st5" width="12.4" height="22.3"/>
				<path class="st6" d="M24.6,30c0-4.3,2-8.4,5.4-11.1c-6.1-4.8-15-3.8-19.9,2.4c-4.8,6.1-3.8,15,2.4,19.9c5.1,4,12.4,4,17.5,0
					C26.6,38.4,24.6,34.3,24.6,30z"/>
				<path class="st7" d="M52.9,30c0,7.8-6.3,14.2-14.2,14.2c-3.2,0-6.3-1.1-8.7-3c6.1-4.8,7.2-13.7,2.4-19.9
					c-0.7-0.9-1.5-1.7-2.4-2.4c6.1-4.8,15-3.8,19.9,2.4C51.8,23.7,52.9,26.8,52.9,30z"/>
				<path class="st7" d="M51.5,38.8v-0.5h0.2v-0.1h-0.5v0.1h0.2v0.5H51.5z M52.4,38.8v-0.5h-0.1l-0.2,0.4L52,38.2h-0.1v0.5h0.1v-0.4
					l0.2,0.4h0.1l0.2-0.4v0.4H52.4z"/>
			</g>
		</g>
	</g>
</g>
</svg>
