<?xml version="1.0" encoding="utf-8"?>
<!-- Generator: Adobe Illustrator 23.0.0, SVG Export Plug-In . SVG Version: 6.00 Build 0)  -->
<svg version="1.1" xmlns="http://www.w3.org/2000/svg" xmlns:xlink="http://www.w3.org/1999/xlink" x="0px" y="0px"
	 viewBox="0 0 60 60" style="enable-background:new 0 0 60 60;" xml:space="preserve">
<style type="text/css">
	.st0{fill:#F7FFF7;}
	.st1{fill:#001524;}
</style>
<g id="Layer_1">
</g>
<g id="Layer_2">
	<g>
		<g>
			<g id="SvgjsG1008_2_">
				<path class="st0" d="M58.9,37.2C55,53,38.9,62.6,23.1,58.7s-25.4-20-21.5-35.8C5.6,7,21.6-2.6,37.4,1.4
					C53.3,5.3,62.9,21.3,58.9,37.2C58.9,37.1,58.9,37.1,58.9,37.2z"/>
			</g>
		</g>
	</g>
	<g>
		<circle class="st1" cx="10.6" cy="36.4" r="3.3"/>
		<path class="st1" d="M49.4,20.3c-1.8,0-3.3,1.4-3.3,3.3c0,2.6-0.4,3.3-3.3,3.3h-0.3c-1.6,0.1-2.9,1.5-2.9,3.2v0.1
			c0,2.5-0.5,3.1-3.3,3.1c-0.1,0-0.3,0-0.3,0.1c-1.6,0.2-2.9,1.6-2.9,3.2c0,1.8,1.4,3.3,3.3,3.3c1.7,0,3.1-1.4,3.2-3v-0.3
			c0-2.3,0.7-3.2,3.2-3.3h0.1c1.7,0,3.1-1.4,3.2-3.1v-0.2c0-2.4,0.7-3.3,3.3-3.3c1.8,0,3.3-1.4,3.3-3.3
			C52.6,21.7,51.2,20.3,49.4,20.3z M30.3,26.8H30c-2.8,0-3.3-0.7-3.3-3.3c0-1.8-1.4-3.3-3.3-3.3c-1.8,0-3.3,1.4-3.3,3.3
			c0,2.6-0.4,3.2-3.3,3.2h-0.3c-1.6,0.1-2.9,1.5-2.9,3.2c0,1.8,1.4,3.3,3.3,3.3c1.7,0,3.1-1.4,3.2-3V30c0-2.4,0.7-3.3,3.3-3.3
			s3.3,0.9,3.3,3.2c0,1.8,1.4,3.3,3.3,3.3c1.8,0,3.3-1.4,3.3-3.3C33.2,28.3,31.9,26.9,30.3,26.8z"/>
	</g>
</g>
</svg>
