<?xml version="1.0" encoding="utf-8"?>
<!-- Generator: Adobe Illustrator 23.0.0, SVG Export Plug-In . SVG Version: 6.00 Build 0)  -->
<svg version="1.1" id="Layer_1" xmlns="http://www.w3.org/2000/svg" xmlns:xlink="http://www.w3.org/1999/xlink" x="0px" y="0px"
	 viewBox="0 0 60 60" style="enable-background:new 0 0 60 60;" xml:space="preserve">
<style type="text/css">
	.st0{display:none;}
	.st1{display:inline;}
	.st2{fill:#001524;}
	.st3{fill:#23A24D;}
	.st4{fill:#231F20;}
	.st5{fill:#84BE55;}
	.st6{fill:#E7ECED;}
</style>
<g class="st0">
	<g class="st1">
		<g id="Layer_x0020_1_1_">
			<g id="_1421344023328_1_">
				<path class="st2" d="M43.7,26.4c0.6-3.8-2.4-5.9-6.4-7.3l1.3-5.2l-3.2-0.8l-1.3,5.1c-0.8-0.2-1.7-0.4-2.5-0.6l1.3-5.1l-3.2-0.8
					l-1.3,5.2c-0.7-0.2-1.4-0.3-2-0.5l0,0L22,15.3l-0.8,3.4c0,0,2.4,0.5,2.3,0.6c1.3,0.3,1.5,1.2,1.5,1.8L23.5,27
					c0.1,0,0.2,0.1,0.3,0.1c-0.1,0-0.2-0.1-0.3-0.1l-2.1,8.3c-0.2,0.4-0.6,1-1.5,0.8l-2.3-0.6L16,39.1l4.1,1
					c0.8,0.2,1.5,0.4,2.3,0.6L21.1,46l3.2,0.8l1.3-5.2c0.9,0.2,1.7,0.5,2.5,0.7L27,47.5l3.2,0.8l1.3-5.3c5.4,1,9.5,0.6,11.2-4.3
					c1.4-3.9-0.1-6.2-2.9-7.7C41.8,30.6,43.3,29.2,43.7,26.4L43.7,26.4L43.7,26.4z M36.5,36.6c-1,3.9-7.6,1.8-9.8,1.3l1.7-7
					C30.6,31.4,37.5,32.5,36.5,36.6L36.5,36.6z M37.5,26.4c-0.9,3.6-6.4,1.8-8.2,1.3l1.6-6.3C32.7,21.8,38.4,22.6,37.5,26.4
					L37.5,26.4z"/>
			</g>
		</g>
	</g>
</g>
<g>
	<g>
		<g id="XMLID_3_">
			<g>
				<rect x="6.3" y="16.5" class="st3" width="47.8" height="26.4"/>
			</g>
			<g>
				<g>
					<path class="st4" d="M54.1,44H6.3c-0.6,0-1-0.5-1-1V16.5c0-0.6,0.5-1,1-1h47.8c0.6,0,1,0.5,1,1V43C55.1,43.5,54.6,44,54.1,44z
						 M7.3,42h45.8V17.6H7.3V42z"/>
				</g>
			</g>
		</g>
		<g>
			<g id="XMLID_2_">
				<g>
					<path class="st5" d="M50.5,24.7v10.2c-2.5,0-4.5,2-4.5,4.5H14.4c0-2.5-2-4.5-4.6-4.5c0,0,0,0,0,0V24.7c0,0,0,0,0,0
						c2.5,0,4.6-2,4.6-4.6c0,0,0,0,0,0h31.5c0,0,0,0,0,0C45.9,22.6,48,24.7,50.5,24.7C50.5,24.7,50.5,24.7,50.5,24.7z"/>
				</g>
				<g>
					<g>
						<path class="st4" d="M46,40.4H14.4c-0.6,0-1-0.5-1-1c0-1.9-1.6-3.5-3.5-3.5h0c-0.6,0-1-0.5-1-1V24.7c0-0.6,0.5-1,1-1h0
							c2,0,3.5-1.6,3.5-3.5v0c0-0.6,0.5-1,1-1h31.5c0.6,0,1,0.5,1,1v0c0,2,1.6,3.5,3.5,3.5h0c0.6,0,1,0.5,1,1v10.2c0,0.6-0.5,1-1,1
							c-1.9,0-3.5,1.6-3.5,3.5C47,40,46.6,40.4,46,40.4z M15.3,38.4h29.7c0.2-1.1,0.7-2.1,1.5-2.9c0.8-0.8,1.8-1.3,2.9-1.5v-8.4
							c-2.3-0.4-4.1-2.2-4.5-4.5H15.3c-0.4,2.3-2.2,4.1-4.5,4.5V34C13.1,34.4,14.9,36.1,15.3,38.4z"/>
					</g>
				</g>
			</g>
		</g>
		<g>
			<rect x="49" y="37.9" class="st4" width="2.5" height="2"/>
		</g>
		<g>
			<rect x="49" y="19.6" class="st4" width="2.5" height="2"/>
		</g>
		<g>
			<rect x="8.8" y="19.6" class="st4" width="2.5" height="2"/>
		</g>
		<g>
			<rect x="8.8" y="37.9" class="st4" width="2.5" height="2"/>
		</g>
		<g id="XMLID_1_">
			<g>
				<path class="st6" d="M30.2,24.2c3.1,0,5.6,2.5,5.6,5.6c0,3.1-2.5,5.6-5.6,5.6s-5.6-2.5-5.6-5.6C24.6,26.7,27.1,24.2,30.2,24.2z"
					/>
			</g>
			<g>
				<g>
					<path class="st4" d="M30.2,36.4c-3.6,0-6.6-3-6.6-6.6s3-6.6,6.6-6.6s6.6,3,6.6,6.6S33.8,36.4,30.2,36.4z M30.2,25.2
						c-2.5,0-4.6,2.1-4.6,4.6c0,2.5,2.1,4.6,4.6,4.6s4.6-2.1,4.6-4.6S32.7,25.2,30.2,25.2z"/>
				</g>
			</g>
		</g>
		<g>
			<rect x="38.8" y="28.7" class="st4" width="4.1" height="2"/>
		</g>
		<g>
			<rect x="17.5" y="28.7" class="st4" width="4.1" height="2"/>
		</g>
	</g>
</g>
</svg>
