<?xml version="1.0" encoding="utf-8"?>
<!-- Generator: Adobe Illustrator 23.0.0, SVG Export Plug-In . SVG Version: 6.00 Build 0)  -->
<svg version="1.1" id="Layer_1" xmlns="http://www.w3.org/2000/svg" xmlns:xlink="http://www.w3.org/1999/xlink" x="0px" y="0px"
	 viewBox="0 0 60 60" style="enable-background:new 0 0 60 60;" xml:space="preserve">
<style type="text/css">
	.st0{fill:#F7FFF7;}
</style>
<title>polkadot</title>
<g id="SvgjsG1008">
	<path class="st0" d="M58.6,37.2c-3.9,15.8-20,25.5-35.8,21.5s-25.5-20-21.5-35.8s20-25.5,35.8-21.5c0,0,0,0,0,0
		C52.9,5.3,62.6,21.4,58.6,37.2z"/>
</g>
<ellipse cx="30.6" cy="15.5" rx="6.7" ry="3.9"/>
<ellipse cx="30.6" cy="45" rx="6.7" ry="3.9"/>
<ellipse transform="matrix(0.5 -0.866 0.866 0.5 -10.8651 26.8713)" cx="17.8" cy="22.8" rx="6.7" ry="3.9"/>
<ellipse transform="matrix(0.5 -0.866 0.866 0.5 -10.8748 56.4313)" cx="43.4" cy="37.6" rx="6.7" ry="3.9"/>
<ellipse transform="matrix(0.866 -0.5 0.5 0.866 -16.4235 13.9637)" cx="17.8" cy="37.6" rx="3.9" ry="6.7"/>
<ellipse transform="matrix(0.866 -0.5 0.5 0.866 -5.6051 24.7787)" cx="43.4" cy="22.8" rx="3.9" ry="6.7"/>
</svg>
