<?xml version="1.0" encoding="utf-8"?>
<!-- Generator: Adobe Illustrator 23.0.0, SVG Export Plug-In . SVG Version: 6.00 Build 0)  -->
<svg version="1.1" xmlns="http://www.w3.org/2000/svg" xmlns:xlink="http://www.w3.org/1999/xlink" x="0px" y="0px"
	 viewBox="0 0 60 60" style="enable-background:new 0 0 60 60;" xml:space="preserve">
<style type="text/css">
	.st0{fill:#F7FFF7;}
	.st1{fill:#001524;}
</style>
<g id="Layer_1">
</g>
<g id="Layer_2">
	<g>
		<g>
			<g id="SvgjsG1008_2_">
				<path class="st0" d="M58.9,37.2C55,53,38.9,62.6,23.1,58.7s-25.4-20-21.5-35.8C5.6,7,21.6-2.6,37.4,1.4
					C53.3,5.3,62.9,21.3,58.9,37.2C58.9,37.1,58.9,37.1,58.9,37.2z"/>
			</g>
		</g>
	</g>
	<g>
		<path class="st1" d="M16.4,38.3c0.2-0.2,0.6-0.4,0.9-0.4h32.1c0.6,0,0.9,0.7,0.5,1.1l-6.3,6.3c-0.2,0.2-0.6,0.4-0.9,0.4H10.6
			c-0.6,0-0.9-0.7-0.5-1.1L16.4,38.3z"/>
		<path class="st1" d="M16.4,14.6c0.3-0.2,0.6-0.4,0.9-0.4h32.1c0.6,0,0.9,0.7,0.5,1.1l-6.3,6.3c-0.2,0.2-0.6,0.4-0.9,0.4H10.6
			c-0.6,0-0.9-0.7-0.5-1.1L16.4,14.6z"/>
		<path class="st1" d="M43.6,26.4C43.3,26.1,43,26,42.6,26H10.6c-0.6,0-0.9,0.7-0.5,1.1l6.3,6.3c0.2,0.2,0.6,0.4,0.9,0.4h32.1
			c0.6,0,0.9-0.7,0.5-1.1L43.6,26.4z"/>
	</g>
</g>
</svg>
