<?xml version="1.0" encoding="utf-8"?>
<!-- Generator: Adobe Illustrator 23.0.0, SVG Export Plug-In . SVG Version: 6.00 Build 0)  -->
<svg version="1.1" id="Layer_1" xmlns="http://www.w3.org/2000/svg" xmlns:xlink="http://www.w3.org/1999/xlink" x="0px" y="0px"
	 viewBox="0 0 60 60" style="enable-background:new 0 0 60 60;" xml:space="preserve">
<style type="text/css">
	.st0{fill:#F7FFF7;}
</style>
<g>
	<g>
		<g>
			<g id="SvgjsG1008_2_">
				<path class="st0" d="M58.6,37.2c-3.9,15.8-20,25.4-35.8,21.5s-25.4-20-21.5-35.8C5.3,7,21.3-2.6,37.1,1.4
					C53,5.3,62.6,21.3,58.6,37.2C58.6,37.1,58.6,37.1,58.6,37.2z"/>
			</g>
		</g>
	</g>
	<g>
		<path d="M34.9,51.6c-2.9,0-5-0.7-6.3-2.1c-1.2-1.2-1.9-2.8-2-4.5c0-0.5,0.1-1,0.3-1.5c0.2-0.4,0.6-0.7,0.9-0.9c0.9-0.5,2-0.5,3,0
			c0.4,0.2,0.7,0.6,0.9,0.9c0.3,0.5,0.4,1,0.4,1.5c0,0.6-0.2,1.2-0.5,1.7c-0.3,0.4-0.7,0.7-1.2,0.9c0.5,0.6,1.1,1,1.9,1.2
			c0.8,0.2,1.7,0.4,2.6,0.4c1.2,0,2.3-0.3,3.3-1s1.7-1.7,2.1-2.9c0.5-1.4,0.7-2.8,0.7-4.3s-0.2-3-0.8-4.5c-0.4-1.1-1.2-2.1-2.2-2.8
			c-0.9-0.6-2-0.9-3.2-0.9c-1,0.1-1.9,0.4-2.7,0.9l-2,1v-1l9.1-12.2H26.6v12.7c0,0.9,0.2,1.8,0.7,2.6c0.5,0.7,1.3,1.1,2.1,1
			c0.8,0,1.5-0.3,2.1-0.7c0.7-0.5,1.3-1.1,1.8-1.8c0-0.1,0.1-0.2,0.2-0.3c0.1-0.1,0.2-0.1,0.3-0.1c0.2,0,0.4,0.1,0.6,0.3
			c0.2,0.2,0.3,0.5,0.3,0.9c0,0.2-0.1,0.4-0.1,0.6c-0.4,1.1-1.2,2-2.2,2.7c-0.9,0.6-2,0.9-3,0.9c-2.7,0-4.6-0.5-5.7-1.6
			c-1.1-1.2-1.7-2.8-1.6-4.4V21.5h-6.4v-2.4h6.5v-5.4l-1.5-1.5V11H25l1.6,0.8V19l16.7-0.1l1.7,1.7L34.7,31.1
			c0.6-0.2,1.3-0.4,1.9-0.5c1.3,0.1,2.6,0.4,3.7,1.1c1.3,0.6,2.4,1.6,3.2,2.9c0.7,1.1,1.2,2.2,1.5,3.5c0.2,1,0.3,2,0.3,3
			c0,1.9-0.4,3.8-1.3,5.5c-0.8,1.7-2.1,3-3.8,3.8C38.6,51.1,36.8,51.6,34.9,51.6z"/>
	</g>
</g>
</svg>
