<?xml version="1.0" encoding="utf-8"?>
<!-- Generator: Adobe Illustrator 23.0.0, SVG Export Plug-In . SVG Version: 6.00 Build 0)  -->
<svg version="1.1" id="Layer_1" xmlns="http://www.w3.org/2000/svg" xmlns:xlink="http://www.w3.org/1999/xlink" x="0px" y="0px"
	 viewBox="0 0 60 60" style="enable-background:new 0 0 60 60;" xml:space="preserve">
<style type="text/css">
	.st0{fill:#00579F;}
	.st1{fill:#FAA61A;}
</style>
<title>visa</title>
<g>
	<g id="g4158">
		<polygon id="polygon9" class="st0" points="26,39.3 21.3,39.3 24.3,20.8 29,20.8 		"/>
		<path id="path11" class="st0" d="M43.4,21.2c-1.4-0.5-2.8-0.8-4.3-0.8c-4.7,0-8.1,2.5-8.1,6.1c0,2.7,2.4,4.1,4.2,5
			c1.8,0.9,2.5,1.5,2.5,2.3c0,1.2-1.5,1.8-2.9,1.8c-1.6,0-3.1-0.3-4.5-1l-0.6-0.3L29,38.6c1.7,0.7,3.5,1,5.3,1c5,0,8.3-2.5,8.3-6.3
			c0-2.1-1.3-3.7-4-5c-1.7-0.9-2.7-1.4-2.7-2.3s0.9-1.6,2.8-1.6c1.2,0,2.4,0.2,3.6,0.7l0.4,0.2L43.4,21.2L43.4,21.2z"/>
		<path id="path13" class="st0" d="M49.7,32.7c0.4-1.1,1.9-5.2,1.9-5.2s0.4-1.1,0.6-1.8l0.3,1.6l1.1,5.4L49.7,32.7z M55.7,20.8h-3.7
			c-1.1-0.1-2.1,0.5-2.5,1.5l-7.1,16.9h5l1-2.8h6.2c0.1,0.7,0.6,2.8,0.6,2.8h4.4L55.7,20.8L55.7,20.8z"/>
		<path id="path15" class="st0" d="M17.3,20.8l-4.7,12.6l-0.5-2.6c-1.2-3.3-3.5-6.1-6.6-7.8l4.3,16.2h5.1l7.5-18.5H17.3z"/>
		<path id="path17" class="st1" d="M8.2,20.8H0.5l-0.1,0.4c6,1.5,10,5.2,11.6,9.7l-1.7-8.5C10.2,21.3,9.2,20.7,8.2,20.8z"/>
	</g>
</g>
</svg>
