<?xml version="1.0" encoding="utf-8"?>
<!-- Generator: Adobe Illustrator 23.0.0, SVG Export Plug-In . SVG Version: 6.00 Build 0)  -->
<svg version="1.1" xmlns="http://www.w3.org/2000/svg" xmlns:xlink="http://www.w3.org/1999/xlink" x="0px" y="0px"
	 viewBox="0 0 60 60" style="enable-background:new 0 0 60 60;" xml:space="preserve">
<style type="text/css">
	.st0{fill:#F7FFF7;}
	.st1{fill:#001524;}
</style>
<g id="Layer_1">
</g>
<g id="Layer_2">
	<g>
		<g>
			<g id="SvgjsG1008_2_">
				<path class="st0" d="M58.9,37.2C55,53,38.9,62.6,23.1,58.7s-25.4-20-21.5-35.8C5.6,7,21.6-2.6,37.4,1.4
					C53.3,5.3,62.9,21.3,58.9,37.2C58.9,37.1,58.9,37.1,58.9,37.2z"/>
			</g>
		</g>
	</g>
	<g>
		<g>
			<g id="Layer_1-2_2_">
				<path class="st1" d="M44.1,12.6h5.6L38,24.1c-4.2,4.2-11.1,4.2-15.3,0L11.1,12.6h5.6l8.9,8.8c2.7,2.6,7,2.6,9.7,0L44.1,12.6z"/>
				<path class="st1" d="M16.6,44.6H11L22.7,33c4.2-4.2,11.1-4.2,15.3,0l11.7,11.6h-5.6l-8.9-8.8c-2.7-2.6-7-2.6-9.7,0L16.6,44.6z"
					/>
			</g>
		</g>
	</g>
</g>
</svg>
