<?xml version="1.0" standalone="no"?>
<!DOCTYPE svg PUBLIC "-//W3C//DTD SVG 20010904//EN"
 "http://www.w3.org/TR/2001/REC-SVG-20010904/DTD/svg10.dtd">
<svg version="1.0" xmlns="http://www.w3.org/2000/svg"
 width="700.000000pt" height="700.000000pt" viewBox="0 0 700.000000 700.000000"
 preserveAspectRatio="xMidYMid meet">
<metadata>
Created by potrace 1.14, written by Peter Selinger 2001-2017
</metadata>
<g transform="translate(0.000000,700.000000) scale(0.100000,-0.100000)"
fill="#000000" stroke="none">
<path d="M3458 6789 c-43 -12 -84 -46 -103 -86 -18 -36 -18 -115 -16 -1585 1
-850 4 -1558 7 -1573 16 -87 136 -140 227 -101 25 11 270 200 382 294 11 9 61
48 110 87 50 38 117 91 150 118 33 27 67 54 75 60 237 184 299 240 316 282 41
108 -33 215 -149 215 -54 0 -81 -17 -292 -185 -281 -223 -430 -341 -467 -369
l-38 -28 0 1138 0 1139 28 -31 c44 -51 63 -74 146 -179 44 -55 82 -102 85
-105 4 -3 19 -23 36 -45 16 -22 32 -42 35 -45 40 -34 538 -709 605 -821 6 -10
48 -77 94 -151 93 -147 98 -155 184 -313 123 -224 265 -554 363 -839 42 -122
120 -394 130 -454 3 -15 9 -43 14 -62 5 -19 11 -51 14 -70 3 -19 8 -46 11 -60
3 -14 10 -59 16 -100 5 -41 12 -88 14 -105 23 -145 23 -518 1 -641 -2 -10 -7
-45 -10 -76 -4 -31 -21 -108 -37 -170 -71 -271 -174 -482 -342 -698 -67 -87
-255 -276 -342 -343 -33 -26 -65 -51 -71 -56 -37 -30 -155 -98 -235 -135 -76
-35 -213 -83 -321 -112 -9 -3 -28 -14 -42 -25 -75 -59 -77 -181 -4 -245 60
-53 113 -52 287 5 228 75 449 196 630 346 107 88 278 268 400 421 48 60 146
226 201 339 105 216 161 402 205 670 14 86 20 211 20 400 -1 227 -4 276 -34
480 -18 121 -48 275 -61 320 -5 17 -11 41 -14 55 -19 96 -94 343 -163 530
-131 359 -255 623 -438 938 -73 127 -284 448 -377 577 -54 74 -197 270 -205
280 -5 6 -37 48 -72 95 -70 92 -322 412 -331 420 -3 3 -39 46 -80 95 -130 158
-374 449 -390 466 -35 37 -99 53 -152 38z"/>
<path d="M2765 5993 c-36 -20 -19 1 -196 -234 -252 -337 -473 -661 -614 -904
-32 -55 -68 -116 -80 -136 -70 -110 -264 -535 -355 -774 -137 -361 -246 -788
-276 -1076 -3 -35 -10 -95 -14 -134 -8 -74 -6 -512 4 -555 2 -14 10 -59 15
-100 46 -331 164 -637 352 -918 92 -138 131 -185 258 -313 170 -169 345 -292
573 -403 230 -112 512 -195 744 -221 330 -37 403 -24 456 80 20 39 21 56 21
520 0 418 -2 484 -16 511 -18 36 -70 84 -262 244 -89 74 -187 157 -295 250
-96 82 -603 511 -644 544 -21 17 -44 37 -51 43 -46 44 -184 157 -206 168 -64
34 -134 22 -185 -31 -54 -55 -64 -133 -26 -192 9 -13 72 -72 141 -130 69 -59
128 -109 131 -112 3 -3 181 -154 395 -335 215 -181 395 -334 401 -340 6 -5 77
-66 158 -134 l146 -123 -2 -327 c-3 -370 7 -334 -93 -319 -27 4 -69 10 -93 13
-24 3 -62 9 -85 15 -23 5 -53 11 -67 13 -112 21 -338 104 -470 174 -91 49
-256 155 -305 198 -234 202 -360 363 -480 610 -50 102 -100 228 -110 275 -1 3
-7 25 -14 50 -15 52 -38 159 -46 216 -4 21 -8 50 -11 64 -23 134 -23 510 0
650 3 14 7 46 10 72 18 140 94 483 136 613 58 178 148 425 185 510 123 279
159 354 263 545 151 278 434 700 729 1088 99 130 113 155 113 202 0 118 -133
198 -235 143z"/>
<path d="M2494 4486 c-90 -39 -118 -173 -52 -246 13 -14 73 -68 133 -120 149
-128 176 -152 200 -175 66 -63 130 -96 172 -89 58 9 71 14 101 41 35 32 52 69
52 118 0 68 -17 91 -145 200 -38 32 -77 66 -86 75 -9 8 -29 26 -45 39 -16 13
-58 50 -94 81 -36 32 -79 65 -97 74 -38 19 -97 20 -139 2z"/>
<path d="M2165 3614 c-16 -8 -41 -29 -55 -47 -34 -42 -36 -141 -4 -184 18 -25
142 -130 400 -342 275 -225 580 -476 584 -481 27 -31 333 -267 359 -276 37
-13 83 -9 118 9 11 7 135 104 274 217 140 113 335 271 434 351 99 80 232 187
295 238 63 51 154 125 203 164 104 83 131 122 131 187 0 139 -156 204 -267
110 -22 -18 -514 -416 -665 -538 -46 -37 -89 -72 -95 -77 -7 -6 -70 -57 -142
-115 -71 -57 -132 -107 -135 -110 -3 -3 -26 -22 -52 -43 l-47 -37 -173 142
c-95 78 -247 203 -338 277 -91 74 -181 149 -201 165 -19 17 -46 40 -60 51 -49
40 -134 110 -154 127 -121 102 -266 216 -279 221 -31 12 -100 7 -131 -9z"/>
<path d="M4931 2584 c-26 -11 -109 -71 -131 -94 -7 -7 -165 -136 -214 -175
-21 -16 -44 -35 -50 -40 -6 -6 -112 -93 -236 -194 -124 -101 -246 -202 -273
-224 -26 -22 -56 -47 -67 -54 -26 -18 -50 -76 -50 -120 0 -103 106 -181 204
-151 35 11 104 65 431 334 66 54 136 111 155 125 19 15 44 35 55 46 11 10 67
57 125 103 58 47 113 92 124 100 142 115 173 189 118 282 -33 56 -130 88 -191
62z"/>
</g>
</svg>
