<?xml version="1.0" encoding="utf-8"?>
<!-- Generator: Adobe Illustrator 23.0.0, SVG Export Plug-In . SVG Version: 6.00 Build 0)  -->
<svg version="1.1" xmlns="http://www.w3.org/2000/svg" xmlns:xlink="http://www.w3.org/1999/xlink" x="0px" y="0px"
	 viewBox="0 0 60 60" style="enable-background:new 0 0 60 60;" xml:space="preserve">
<style type="text/css">
	.st0{fill:#F7FFF7;}
	.st1{fill:#001524;}
	.st2{fill:#00579F;}
	.st3{fill:#FAA61A;}
</style>
<g id="Layer_1">
	<title>bitcoin</title>
	<g id="SvgjsG1008">
		<path class="st0" d="M-19.7,38c-4,16-20.2,25.7-36.2,21.7s-25.7-20.2-21.7-36.2c4-16,20.2-25.7,36.1-21.7
			C-25.4,5.8-15.7,22-19.7,38C-19.7,38-19.7,38-19.7,38z"/>
		<path class="st1" d="M-35.5,26.5c0.6-4-2.4-6.1-6.6-7.5l1.3-5.4l-3.3-0.8l-1.3,5.2c-0.9-0.2-1.7-0.4-2.6-0.6l1.3-5.3l-3.3-0.8
			l-1.3,5.4l-2.1-0.5l0,0l-4.5-1.1l-0.9,3.5c0,0,2.4,0.6,2.4,0.6c0.9,0.1,1.6,1,1.5,1.9l-1.5,6.1l0.3,0.1l-0.3-0.1l-2.1,8.6
			c-0.2,0.6-0.9,1-1.5,0.8c0,0,0,0,0,0l-2.4-0.6l-1.6,3.8l4.3,1.1l2.3,0.6l-1.4,5.4l3.3,0.8l1.3-5.4l2.6,0.7l-1.3,5.3l3.3,0.8
			l1.4-5.4c5.6,1,9.8,0.6,11.6-4.4c1.4-4.1-0.1-6.4-3-7.9C-37.5,30.9-35.9,29.4-35.5,26.5L-35.5,26.5z M-42.9,37
			c-1,4.1-7.8,1.9-10.1,1.3l1.8-7.2C-49,31.7-41.9,32.8-42.9,37L-42.9,37z M-42,26.5c-0.9,3.7-6.6,1.8-8.5,1.4l1.6-6.5
			C-46.9,21.8-41,22.6-42,26.5L-42,26.5z"/>
	</g>
</g>
<g id="Layer_2">
	<g>
		
			<sodipodi:namedview  bordercolor="#666666" borderopacity="1" gridtolerance="10" guidetolerance="10" id="namedview19" objecttolerance="10" pagecolor="#ffffff" showgrid="false">
			</sodipodi:namedview>
		<g id="g4158_1_" transform="matrix(4.4299631,0,0,4.4299631,-81.165783,-105.04783)">
			<polygon id="polygon9_1_" class="st2" points="24.2,32.1 23.3,32.1 23.8,28.5 24.7,28.5 			"/>
			<path id="path11_1_" class="st2" d="M27.5,28.6c-0.2-0.1-0.5-0.2-0.8-0.2c-0.9,0-1.5,0.5-1.5,1.2c0,0.5,0.5,0.8,0.8,1
				c0.4,0.2,0.5,0.3,0.5,0.4c0,0.2-0.3,0.3-0.5,0.3c-0.4,0-0.6-0.1-0.9-0.2l-0.1-0.1l-0.1,0.8c0.2,0.1,0.6,0.2,1,0.2
				c1,0,1.6-0.5,1.6-1.2c0-0.4-0.2-0.7-0.8-1c-0.3-0.2-0.5-0.3-0.5-0.4c0-0.2,0.2-0.3,0.5-0.3c0.3,0,0.5,0.1,0.7,0.1l0.1,0
				L27.5,28.6C27.5,28.6,27.5,28.6,27.5,28.6z"/>
			<path id="path13_1_" class="st2" d="M28.7,30.8c0.1-0.2,0.4-1,0.4-1c0,0,0.1-0.2,0.1-0.3l0.1,0.3c0,0,0.2,0.8,0.2,1
				C29.3,30.8,28.9,30.8,28.7,30.8L28.7,30.8z M29.8,28.5h-0.7c-0.2,0-0.4,0.1-0.5,0.3l-1.4,3.2h1c0,0,0.2-0.4,0.2-0.5
				c0.1,0,1,0,1.2,0c0,0.1,0.1,0.5,0.1,0.5h0.8L29.8,28.5L29.8,28.5L29.8,28.5z"/>
			<path id="path15_1_" class="st2" d="M22.5,28.5l-0.9,2.4l-0.1-0.5c-0.2-0.6-0.7-1.2-1.3-1.5l0.8,3.1h1l1.4-3.5H22.5L22.5,28.5
				L22.5,28.5z"/>
			<path id="path17_1_" class="st3" d="M20.8,28.5h-1.5l0,0.1c1.1,0.3,1.9,1,2.2,1.8l-0.3-1.6C21.1,28.6,21,28.6,20.8,28.5
				L20.8,28.5z"/>
		</g>
	</g>
</g>
</svg>
