<svg xmlns="http://www.w3.org/2000/svg" viewBox="0 0 60 60"><defs><style>.cls-1{fill:#f7fff7;}.cls-2{fill:#0d022b;fill-rule:evenodd;}</style></defs><title>elrond</title><g id="Layer_2" data-name="Layer 2"><g id="SvgjsG1008"><path class="cls-1" d="M58.64,37.15A29.52,29.52,0,1,1,37.14,1.36a29.52,29.52,0,0,1,21.5,35.79Z"/></g><path class="cls-2" d="M41,19a.65.65,0,0,1-.23-.48A.67.67,0,0,1,41,18,.82.82,0,0,1,42,18a.67.67,0,0,1,.23.49A.65.65,0,0,1,42,19a.89.89,0,0,1-.52.2A.57.57,0,0,1,41,19Z"/><path class="cls-2" d="M39.13,21a.75.75,0,0,1-.2-.48.77.77,0,0,1,.2-.49.7.7,0,0,1,1,0,.72.72,0,0,1,.2.49.68.68,0,0,1-.68.68A.74.74,0,0,1,39.13,21Z"/><path class="cls-2" d="M37.14,22.84a.69.69,0,0,1-.2-.49.74.74,0,0,1,.2-.49.72.72,0,0,1,1,0,.73.73,0,0,1,.2.49.8.8,0,0,1-.2.49.65.65,0,0,1-.49.19A.68.68,0,0,1,37.14,22.84Z"/><path class="cls-2" d="M35.22,24.75a.63.63,0,0,1-.22-.49.64.64,0,0,1,.22-.48.82.82,0,0,1,1.06,0,.6.6,0,0,1,.23.48.64.64,0,0,1-.23.49.73.73,0,0,1-.51.2A.7.7,0,0,1,35.22,24.75Z"/><path class="cls-2" d="M33.4,26.66a.57.57,0,0,1-.2-.49.69.69,0,0,1,1.17-.48.58.58,0,0,1,.2.48.71.71,0,0,1-.2.49.61.61,0,0,1-.49.2A.47.47,0,0,1,33.4,26.66Z"/><path class="cls-2" d="M31.2,28.09a.69.69,0,0,1,1.17-.49.64.64,0,0,1,.2.49.75.75,0,0,1-.2.48.69.69,0,0,1-.49.2.7.7,0,0,1-.48-.2A.58.58,0,0,1,31.2,28.09Z"/><path class="cls-2" d="M27.63,32.31a.69.69,0,0,1-.2-.48.77.77,0,0,1,.2-.49.7.7,0,0,1,1,0,.64.64,0,0,1,.2.49.7.7,0,0,1-.2.48.58.58,0,0,1-.48.2A.5.5,0,0,1,27.63,32.31Z"/><path class="cls-2" d="M25.66,34.22a.6.6,0,0,1-.23-.48.69.69,0,0,1,.23-.49.84.84,0,0,1,1.06,0,.69.69,0,0,1,.23.49.65.65,0,0,1-.23.48.73.73,0,0,1-.52.2A.59.59,0,0,1,25.66,34.22Z"/><path class="cls-2" d="M23.81,36.17a.7.7,0,0,1,0-1,.72.72,0,0,1,1,0,.73.73,0,0,1,.2.49.8.8,0,0,1-.2.49.66.66,0,0,1-.49.2A.82.82,0,0,1,23.81,36.17Z"/><path class="cls-2" d="M21.89,38.08a.61.61,0,0,1-.2-.49.75.75,0,0,1,.2-.48.69.69,0,0,1,1.17.48.69.69,0,0,1-.2.49.62.62,0,0,1-.48.2A.66.66,0,0,1,21.89,38.08Z"/><path class="cls-2" d="M19.92,40a.61.61,0,0,1-.22-.48.66.66,0,0,1,.22-.49.74.74,0,0,1,1,0,.64.64,0,0,1,.23.49.59.59,0,0,1-.23.48.9.9,0,0,1-.51.2A.61.61,0,0,1,19.92,40Z"/><path class="cls-2" d="M18,41.9a.62.62,0,0,1-.2-.48.77.77,0,0,1,.2-.49.72.72,0,0,1,1,0,.64.64,0,0,1,.2.49.75.75,0,0,1-.2.48.67.67,0,0,1-.49.2A.6.6,0,0,1,18,41.9Z"/><path class="cls-2" d="M19,19a.75.75,0,0,0,.2-.48A.77.77,0,0,0,19,18a.7.7,0,0,0-1,0,.64.64,0,0,0-.2.49A.75.75,0,0,0,18,19a.66.66,0,0,0,.48.2A.47.47,0,0,0,19,19Z"/><path class="cls-2" d="M20.92,21a.62.62,0,0,0,.23-.48.64.64,0,0,0-.23-.49.8.8,0,0,0-1.05,0,.64.64,0,0,0-.23.49.62.62,0,0,0,.23.48.84.84,0,0,0,.51.2A1.07,1.07,0,0,0,20.92,21Z"/><path class="cls-2" d="M22.86,22.84a.69.69,0,0,0,.2-.49.74.74,0,0,0-.2-.49.72.72,0,0,0-1,0,.73.73,0,0,0-.2.49.8.8,0,0,0,.2.49.65.65,0,0,0,.49.19A.8.8,0,0,0,22.86,22.84Z"/><path class="cls-2" d="M24.78,24.75a.73.73,0,0,0,.2-.49.75.75,0,0,0-.2-.48.7.7,0,0,0-1,0,.65.65,0,0,0-.2.48.69.69,0,0,0,.2.49.62.62,0,0,0,.48.2A.59.59,0,0,0,24.78,24.75Z"/><path class="cls-2" d="M26.66,26.66a.62.62,0,0,0,.23-.49.65.65,0,0,0-.23-.48.74.74,0,0,0-1,0,.6.6,0,0,0-.23.48.62.62,0,0,0,.23.49.73.73,0,0,0,.51.2A.48.48,0,0,0,26.66,26.66Z"/><path class="cls-2" d="M28.8,28.09a.69.69,0,0,0-1.17-.49.64.64,0,0,0-.2.49.75.75,0,0,0,.2.48.67.67,0,0,0,.49.2.7.7,0,0,0,.48-.2A.58.58,0,0,0,28.8,28.09Z"/><path class="cls-2" d="M30.51,30.51a.59.59,0,0,0,.2-.48.74.74,0,0,0-.2-.49.72.72,0,0,0-1,0,.66.66,0,0,0-.2.49.75.75,0,0,0,.2.48.69.69,0,0,0,.49.2A.65.65,0,0,0,30.51,30.51Z"/><path class="cls-2" d="M32.43,32.31a.59.59,0,0,0,.22-.48.66.66,0,0,0-.22-.49.74.74,0,0,0-1,0,.64.64,0,0,0-.23.49.62.62,0,0,0,.23.48.73.73,0,0,0,.51.2A.54.54,0,0,0,32.43,32.31Z"/><path class="cls-2" d="M34.37,34.22a.69.69,0,0,0,.2-.48.8.8,0,0,0-.2-.49.72.72,0,0,0-1,0,.74.74,0,0,0-.2.49.7.7,0,0,0,.2.48.59.59,0,0,0,.48.2A.6.6,0,0,0,34.37,34.22Z"/><path class="cls-2" d="M36.28,36.17a.7.7,0,0,0,0-1,.72.72,0,0,0-1,0,.69.69,0,0,0-.2.49.74.74,0,0,0,.2.49.62.62,0,0,0,.48.2A.77.77,0,0,0,36.28,36.17Z"/><path class="cls-2" d="M38.08,38.08a.61.61,0,0,0,.2-.49.75.75,0,0,0-.2-.48.69.69,0,0,0-1.17.48.69.69,0,0,0,.2.49.62.62,0,0,0,.48.2A.66.66,0,0,0,38.08,38.08Z"/><path class="cls-2" d="M40.1,40a.56.56,0,0,0,.2-.48.72.72,0,0,0-.2-.49.7.7,0,0,0-1,0,.64.64,0,0,0-.2.49.7.7,0,0,0,.2.48.73.73,0,0,0,.49.2A.58.58,0,0,0,40.1,40Z"/><path class="cls-2" d="M42,41.9a.65.65,0,0,0,.23-.48.67.67,0,0,0-.23-.49.76.76,0,0,0-1,0,.67.67,0,0,0-.23.49.65.65,0,0,0,.23.48.84.84,0,0,0,.51.2A.62.62,0,0,0,42,41.9Z"/><path class="cls-2" d="M23.55,19.52a11.85,11.85,0,0,1,12.9,0l4.11-4.11A17,17,0,0,0,30,11.73a16.76,16.76,0,0,0-10.53,3.68Z"/><path class="cls-2" d="M19.44,36.39A11.36,11.36,0,0,1,17.5,30a11.18,11.18,0,0,1,1.94-6.39l-4.08-4.09a17.11,17.11,0,0,0,0,21Z"/><path class="cls-2" d="M36.42,40.48a11.49,11.49,0,0,1-6.39,2,11,11,0,0,1-6.48-2l-4.11,4.09A16.58,16.58,0,0,0,30,48.27,17.14,17.14,0,0,0,40.5,44.59Z"/><path class="cls-2" d="M40.45,23.55a11.17,11.17,0,0,1,1.94,6.51,11.56,11.56,0,0,1-1.94,6.28l4.11,4.08A16.76,16.76,0,0,0,48.24,30a16.58,16.58,0,0,0-3.68-10.59Z"/><path class="cls-2" d="M44.73,41.76a2.89,2.89,0,1,1-2.88,2.88A2.89,2.89,0,0,1,44.73,41.76Z"/><path class="cls-2" d="M15.33,41.76a2.89,2.89,0,1,1-2.86,2.88A2.86,2.86,0,0,1,15.33,41.76Z"/><path class="cls-2" d="M44.79,12.36a2.89,2.89,0,1,1-2.86,2.88A2.86,2.86,0,0,1,44.79,12.36Z"/><path class="cls-2" d="M15.27,12.36a2.86,2.86,0,1,1-2.88,2.85A2.88,2.88,0,0,1,15.27,12.36Z"/></g></svg>