<?xml version="1.0" encoding="utf-8"?>
<!-- Generator: Adobe Illustrator 23.0.0, SVG Export Plug-In . SVG Version: 6.00 Build 0)  -->
<svg version="1.1" xmlns="http://www.w3.org/2000/svg" xmlns:xlink="http://www.w3.org/1999/xlink" x="0px" y="0px"
	 viewBox="0 0 60 60" style="enable-background:new 0 0 60 60;" xml:space="preserve">
<style type="text/css">
	.st0{fill:#F7FFF7;}
	.st1{fill:#001524;}
	.st2{fill:#141414;}
	.st3{fill:#393939;}
</style>
<g id="Layer_1">
</g>
<g id="Layer_2">
	<g id="SvgjsG1008_1_">
		<path class="st0" d="M58.6,37.2c-3.9,15.8-20,25.4-35.8,21.5s-25.4-20-21.5-35.8C5.3,7,21.3-2.6,37.1,1.4
			C53,5.3,62.6,21.3,58.6,37.2C58.6,37.1,58.6,37.1,58.6,37.2z"/>
	</g>
	<g>
		<g id="Layer_x0020_1_1_">
			<g id="_1421394342400_1_">
				<g>
					<polygon class="st1" points="30,10.1 29.7,11 29.7,37.3 30,37.6 42.2,30.4 					"/>
					<polygon class="st1" points="30,10.1 17.8,30.4 30,37.6 30,24.8 					"/>
					<polygon class="st1" points="30,39.9 29.8,40.1 29.8,49.5 30,49.9 42.2,32.7 					"/>
					<polygon class="st1" points="30,49.9 30,39.9 17.8,32.7 					"/>
					<polygon class="st2" points="30,37.6 42.2,30.4 30,24.8 					"/>
					<polygon class="st3" points="17.8,30.4 30,37.6 30,24.8 					"/>
				</g>
			</g>
		</g>
	</g>
</g>
</svg>
