<svg xmlns="http://www.w3.org/2000/svg" viewBox="0 0 60 60"><defs><style>.cls-1{fill:#f7fff7;}.cls-2{fill:#001524;}</style></defs><title>iota</title><g id="Layer_2" data-name="Layer 2"><g id="SvgjsG1008"><path class="cls-1" d="M58.64,37.15A29.52,29.52,0,1,1,37.14,1.36a29.52,29.52,0,0,1,21.5,35.79Z"/></g><g id="Layer_1-2" data-name="Layer 1-2"><path class="cls-2" d="M38,15.77a2.1,2.1,0,1,0-2.06-2.09A2.08,2.08,0,0,0,38,15.77Zm.61,5.45a1.76,1.76,0,0,0,1.75-1.77h0a1.75,1.75,0,1,0-1.75,1.77Zm4.8.7a1.78,1.78,0,1,0-1.74-1.78A1.76,1.76,0,0,0,43.4,21.92Zm-.58,4.66a1.52,1.52,0,1,0-1.49-1.52A1.51,1.51,0,0,0,42.82,26.58Zm3.85,1.51a1.53,1.53,0,1,0-1.5-1.53h0A1.52,1.52,0,0,0,46.67,28.09ZM38,26a1.54,1.54,0,0,0,1.53-1.55h0A1.53,1.53,0,1,0,38,26Zm-1.38,3.7a1.3,1.3,0,0,0,0-2.59h0a1.3,1.3,0,0,0,0,2.59Zm4.81.66A1.29,1.29,0,0,0,42.69,29h0a1.28,1.28,0,1,0-1.29,1.29h0Zm3.83,1.5A1.3,1.3,0,1,0,44,30.51a1.29,1.29,0,0,0,1.28,1.3Zm-1.89,2.82a1.1,1.1,0,1,0-1.09-1.1A1.1,1.1,0,0,0,43.36,34.63ZM39.5,33.15A1.12,1.12,0,0,0,40.61,32a1.11,1.11,0,1,0-2.21,0A1.12,1.12,0,0,0,39.5,33.15Zm-4.8-.69a1.12,1.12,0,0,0,0-2.23h0a1.12,1.12,0,0,0,0,2.23Zm2.67,2.64a1,1,0,0,0,0-1.93h0a1,1,0,0,0-.95,1,.94.94,0,0,0,.94,1Zm3.85,1.51a1,1,0,0,0,1-1,1,1,0,0,0-1.95,0A1,1,0,0,0,41.22,36.61Zm-2.17,1.13a.78.78,0,1,0-.76-.77A.77.77,0,0,0,39.05,37.74Zm-2,.6a.69.69,0,0,0,.69-.69h0a.69.69,0,1,0-1.38,0h0a.68.68,0,0,0,.68.69Zm-1.8-2a.84.84,0,1,0-.82-.84A.83.83,0,0,0,35.2,36.34Zm-2.64-1.91a1,1,0,1,0-1-1A1,1,0,0,0,32.56,34.43Zm7.83,12.11a2.09,2.09,0,1,0-2.06-2.09,2.07,2.07,0,0,0,2.06,2.09ZM35.17,43.9a1.74,1.74,0,1,0-1.71-1.74A1.73,1.73,0,0,0,35.17,43.9Zm-3,3.82A1.76,1.76,0,1,0,30.46,46a1.75,1.75,0,0,0,1.73,1.76Zm-.9-7a1.52,1.52,0,0,0,1.5-1.52h0a1.51,1.51,0,0,0-1.5-1.52h0a1.51,1.51,0,0,0-1.5,1.52h0a1.52,1.52,0,0,0,1.5,1.52Zm-3,3.87A1.52,1.52,0,1,0,26.82,43a1.5,1.5,0,0,0,1.5,1.51Zm-3.21,2.63a1.51,1.51,0,1,0-1.49-1.51,1.5,1.5,0,0,0,1.49,1.51Zm-2.67-3.42a1.29,1.29,0,1,0-1.27-1.27A1.29,1.29,0,0,0,22.44,43.76Zm3.21-2.64a1.29,1.29,0,0,0,0-2.58,1.29,1.29,0,0,0,0,2.58Zm3-3.88A1.27,1.27,0,0,0,29.92,36h0a1.27,1.27,0,1,0-2.54,0h0A1.28,1.28,0,0,0,28.65,37.24Zm-4.58.54A1.12,1.12,0,1,0,23,36.66,1.11,1.11,0,0,0,24.07,37.78Zm-3.2,2.63A1.1,1.1,0,0,0,22,39.3h0a1.09,1.09,0,0,0-1.08-1.11h0a1.09,1.09,0,0,0-1.09,1.11h0a1.1,1.1,0,0,0,1.09,1.11Zm-.73-3.08a1,1,0,0,0,.94-1,.95.95,0,1,0-.94,1Zm0-2.71a.82.82,0,0,0,.81-.82h0a.81.81,0,1,0-.81.82Zm.44-2.25a.69.69,0,0,0,.69-.7.7.7,0,0,0-.69-.7.7.7,0,0,0,0,1.4ZM23.31,32a.83.83,0,1,0-.82-.83A.83.83,0,0,0,23.31,32Zm3-1.18a1,1,0,0,0,1-1,1,1,0,0,0-.95-1h0a1,1,0,0,0,0,1.93Zm.72,3.06a1.08,1.08,0,0,0,1.09-1.08,1.1,1.1,0,0,0-1.09-1.09,1.09,1.09,0,0,0,0,2.17Zm-3.7.82a1,1,0,1,0-1-1h0a1,1,0,0,0,.94,1h0ZM12.9,33.28a2.08,2.08,0,1,0-2.05-2.08,2.06,2.06,0,0,0,2.05,2.08Zm4.65-3.71a1.78,1.78,0,1,0-1.76-1.79h0a1.77,1.77,0,0,0,1.76,1.78ZM15.73,25A1.77,1.77,0,1,0,14,23.23h0A1.75,1.75,0,0,0,15.72,25Zm4.48-2.17a1.52,1.52,0,1,0-1.49-1.51,1.5,1.5,0,0,0,1.49,1.51Zm1.84,4.56a1.52,1.52,0,1,0-1.51-1.52A1.51,1.51,0,0,0,22.05,27.39Zm4.08-.94a1.28,1.28,0,0,0,1.27-1.3h0a1.28,1.28,0,1,0-2.55,0v0h0a1.28,1.28,0,0,0,1.27,1.3Zm3.52,0a1.12,1.12,0,1,0-1.11-1.11,1.11,1.11,0,0,0,1.11,1.11Zm2.91.67a.94.94,0,1,0-.93-.94A1,1,0,0,0,32.56,27.13Zm.38-3.43a.82.82,0,1,0-.81-.82A.82.82,0,0,0,32.94,23.7ZM30.7,22.58a.94.94,0,0,0,0-1.87.92.92,0,0,0-.93.93.94.94,0,0,0,.93.94Zm-2.88-.69a1.11,1.11,0,1,0-1.09-1.1,1.09,1.09,0,0,0,1.09,1.1Zm-3.52,0A1.3,1.3,0,1,0,23,20.6,1.3,1.3,0,0,0,24.3,21.9Zm-4.73-3.25a1.47,1.47,0,1,0-1.45-1.47A1.46,1.46,0,0,0,19.57,18.65Zm4.07-.89a1.3,1.3,0,1,0-1.28-1.3A1.3,1.3,0,0,0,23.64,17.76Zm3.53,0a1.12,1.12,0,1,0-1.11-1.12h0A1.12,1.12,0,0,0,27.17,17.78Zm2.89.66a.94.94,0,1,0-.94-.94A.93.93,0,0,0,30.06,18.44Zm2.22,1.16a.84.84,0,0,0,.83-.84.83.83,0,1,0-.83.84Zm1.63,1.32a.68.68,0,0,0,.68-.69h0a.7.7,0,0,0-.68-.7h0a.69.69,0,0,0-.68.7h0a.68.68,0,0,0,.67.69h0Z"/></g></g></svg>