<svg xmlns="http://www.w3.org/2000/svg" viewBox="0 0 60 60"><defs><style>.cls-1{fill:#f7fff7;}.cls-2{fill:#fff;}.cls-3{fill:#345d9d;}</style></defs><title>litecoin</title><g id="Layer_2" data-name="Layer 2"><g id="SvgjsG1008"><path class="cls-1" d="M58.64,37.15A29.52,29.52,0,1,1,37.14,1.36a29.52,29.52,0,0,1,21.5,35.79Z"/></g><circle class="cls-2" cx="30.58" cy="30.1" r="17.69"/><path class="cls-3" d="M30.58,10.27A19.84,19.84,0,1,0,50.42,30.1h0A19.78,19.78,0,0,0,30.7,10.27h-.12Zm.34,20.51-2.07,7h11a.56.56,0,0,1,.58.54h0v.18l-1,3.32a.71.71,0,0,1-.73.52H21.89l2.83-9.65-3.17,1,.72-2.21,3.17-1,4-13.54a.73.73,0,0,1,.72-.53h4.27a.56.56,0,0,1,.58.54h0v.18L31.64,28.52l3.17-1-.67,2.3Z"/></g></svg>