<svg id="Layer_1" data-name="Layer 1" xmlns="http://www.w3.org/2000/svg" viewBox="0 0 88.72 94.78"><defs><style>.cls-1{fill:#f7fff7;}.cls-2{fill:#001524;}</style></defs><title>mastercard</title><g id="SvgjsG1008"><path class="cls-1" d="M-8.6,84.67a30.44,30.44,0,0,1-36.9,22.17,30.44,30.44,0,0,1-22.17-36.9,30.44,30.44,0,0,1,36.9-22.18A30.45,30.45,0,0,1-8.6,84.67Z" transform="translate(68.58 -12.97)"/><path class="cls-2" d="M-24.71,73c.61-4-2.48-6.23-6.69-7.68L-30,59.79-33.38,59l-1.33,5.34c-.88-.22-1.78-.42-2.68-.63L-36,58.29l-3.33-.83L-40.75,63l-2.14-.5v0l-4.61-1.15-.89,3.57s2.48.56,2.43.6a1.77,1.77,0,0,1,1.55,1.94L-46,73.65a1.53,1.53,0,0,1,.35.11l-.35-.09-2.19,8.76a1.22,1.22,0,0,1-1.53.8s-2.43-.61-2.43-.61l-1.66,3.82,4.35,1.09,2.39.61-1.39,5.56,3.34.83,1.37-5.5c.91.25,1.8.48,2.66.7l-1.36,5.46,3.34.84,1.38-5.55c5.7,1.08,10,.65,11.79-4.51,1.45-4.15-.07-6.54-3.07-8.1,2.18-.5,3.83-1.94,4.26-4.91Zm-7.63,10.71c-1,4.15-8,1.91-10.29,1.34l1.84-7.35c2.26.56,9.53,1.68,8.45,6Zm1-10.77c-.94,3.78-6.75,1.86-8.64,1.39l1.66-6.67c1.89.47,8,1.35,7,5.28Z" transform="translate(68.58 -12.97)"/></g><rect class="cls-1" x="79.27" y="0.98" width="4.02" height="7.23"/><path class="cls-1" d="M10.94,17.57A4.61,4.61,0,0,1,12.7,14a4.6,4.6,0,1,0,0,7.23A4.59,4.59,0,0,1,10.94,17.57Z" transform="translate(68.58 -12.97)"/><path class="cls-1" d="M20.13,17.57a4.59,4.59,0,0,1-7.43,3.61,4.6,4.6,0,0,0,.77-6.45A5.17,5.17,0,0,0,12.7,14a4.6,4.6,0,0,1,7.43,3.62Z" transform="translate(68.58 -12.97)"/><path class="cls-1" d="M19.69,20.42v-.15h.06v0H19.6v0h.06v.15Zm.3,0v-.18h0l-.05.12-.05-.12h-.05v.18h0v-.14l.05.12h0l.05-.12v.14Z" transform="translate(68.58 -12.97)"/></svg>