<svg xmlns="http://www.w3.org/2000/svg" viewBox="0 0 60 60"><defs><style>.cls-1{fill:#00579f;}.cls-2{fill:#faa61a;}</style></defs><title>visa</title><g id="Layer_2" data-name="Layer 2"><g id="g4158"><polygon id="polygon9" class="cls-1" points="25.92 37.03 21.88 37.03 24.41 21.4 28.45 21.4 25.92 37.03"/><path id="path11" class="cls-1" d="M40.56,21.78a10.06,10.06,0,0,0-3.62-.66c-4,0-6.8,2.12-6.82,5.17,0,2.24,2,3.49,3.54,4.24s2.1,1.26,2.1,1.94c0,1.05-1.26,1.53-2.43,1.53a8.09,8.09,0,0,1-3.79-.83L29,32.92l-.57,3.51a12.45,12.45,0,0,0,4.51.83c4.24,0,7-2.1,7-5.34,0-1.78-1.06-3.14-3.39-4.25-1.41-.72-2.28-1.2-2.28-1.93s.73-1.35,2.33-1.35a6.86,6.86,0,0,1,3,.6l.36.17.55-3.38Z"/><path id="path13" class="cls-1" d="M45.93,31.49c.34-.9,1.62-4.37,1.62-4.37s.33-.92.53-1.5L48.36,27l.93,4.52Zm5-10.09H47.8a2,2,0,0,0-2.12,1.3L39.68,37h4.24l.85-2.35H50c.11.55.48,2.35.48,2.35h3.74L50.92,21.4Z"/><path id="path15" class="cls-1" d="M18.5,21.4,14.55,32.06l-.44-2.17a12,12,0,0,0-5.58-6.55L12.15,37h4.28L22.78,21.4Z"/><path id="path17" class="cls-2" d="M10.87,21.4H4.37l-.06.32c5.07,1.29,8.42,4.42,9.8,8.17L12.7,22.71a1.67,1.67,0,0,0-1.83-1.31Z"/></g></g></svg>