<?xml version="1.0" encoding="utf-8"?>
<!-- Svg Vector Icons : http://www.onlinewebfonts.com/icon -->
<!DOCTYPE svg PUBLIC "-//W3C//DTD SVG 1.1//EN" "http://www.w3.org/Graphics/SVG/1.1/DTD/svg11.dtd">
<svg version="1.1" xmlns="http://www.w3.org/2000/svg" xmlns:xlink="http://www.w3.org/1999/xlink" x="0px" y="0px" viewBox="0 0 1000 1000" enable-background="new 0 0 1000 1000" xml:space="preserve">
<metadata> Svg Vector Icons : http://www.onlinewebfonts.com/icon </metadata>
<g><g transform="translate(0.000000,512.000000) scale(0.100000,-0.100000)"><path d="M4145.9,5102.1c-485.5-46.8-1033.4-212.5-1472.2-444.6c-429-228.1-711.7-440.7-1101.7-830.7c-286.6-286.6-331.5-343.2-590.8-731.2c-130.6-195-403.6-674.7-403.6-707.8c0-7.8-29.2-85.8-66.3-171.6c-79.9-191.1-230.1-653.2-273-836.5C-42.5,127.9,107.7-1184.3,657.5-2295.8c485.5-974.9,1208.9-1717.8,2113.7-2164.4c606.4-300.3,1230.4-432.9,1871.9-399.7c362.7,19.5,347.1,19.5,711.7,0c1702.2-85.8,3328.5,1023.7,4096.7,2792.2C9761.6-1354,9900-669.6,9900,131.8c-1.9,1827.1-883.3,3496.2-2314.5,4381.4c-454.3,280.8-947.7,466-1480,553.8c-191.1,31.2-668.8,46.8-1013.9,29.2c-85.8-3.9-313.9-2-507,3.9S4194.6,5106,4145.9,5102.1z M6019.7,4731.6c904.7-124.8,1743.2-592.8,2373-1324C9541.2,2073.9,9876.6,79.2,9250.7-1685.5c-44.8-124.8-144.3-354.9-222.3-510.9c-538.2-1086.1-1411.7-1854.3-2470.5-2174.1c-374.4-113.1-555.7-136.5-1037.3-138.4c-495.3,0-682.5,29.2-1136.8,177.4c-984.7,321.7-1852.4,1095.8-2361.3,2109.8C1351.7-884,1299,796.8,1887.9,2169.5c508.9,1191.4,1400,2049.3,2497.8,2408.1c220.3,72.1,538.2,144.3,744.9,171.6C5290.5,4770.6,5820.8,4760.9,6019.7,4731.6z M3697.4,4663.4c-15.6-9.7-111.1-66.3-208.6-124.8l-179.4-107.2h-171.6c-132.6,2-163.8,5.8-134.5,21.4c87.7,52.6,627.9,230.1,694.2,230.1C3722.8,4682.9,3722.8,4680.9,3697.4,4663.4z M2603.5,3828.8l-241.8-251.5l-302.2-2h-302.2l136.5,128.7c76,70.2,206.7,185.2,292.5,253.5l154,122.8h253.5h251.5L2603.5,3828.8z M2047.8,3169.8c-89.7-140.4-241.8-397.8-298.3-507L1689,2540h-331.5h-333.4l33.2,64.3c62.4,122.9,171.6,298.3,284.7,458.2l115,159.9h313.9h312L2047.8,3169.8z M1513.5,2175.3c0-9.8-39-124.8-85.8-259.3l-85.8-243.7l-333.4-5.8c-273-3.9-333.4,0-333.4,21.4c0,23.4,105.3,315.9,165.7,468c11.7,29.2,48.7,33.2,343.2,33.2C1365.3,2189,1513.5,2183.1,1513.5,2175.3z M1254.2,1307.6c-3.9-13.6-23.4-113.1-40.9-220.3c-19.5-107.2-37-214.5-42.9-237.9c-7.8-44.8-11.7-44.8-339.3-44.8c-181.3,0-333.4,5.8-337.3,15.6c-7.8,13.7,44.8,354.9,72.1,460.2l11.7,50.7h343.2C1187.9,1331,1262,1325.2,1254.2,1307.6z M1135.3,412.6c-5.9-33.1-11.7-152.1-11.7-263.2V-53.4H782.3H441.1v232c0,128.7,5.8,245.7,11.7,263.2c9.8,27.3,60.4,31.2,352.9,31.2H1147L1135.3,412.6z M1150.9-427.8c5.9-25.3,19.5-122.8,31.2-220.3c11.7-95.6,27.3-195,33.2-218.4l9.7-44.8H883.7H542.5l-11.7,54.6c-25.4,111.2-66.3,442.6-56.5,458.2c3.9,7.8,156,13.7,337.3,13.7C1139.2-384.9,1143.1-384.9,1150.9-427.8z M1306.8-1285.7c27.3-93.6,132.6-432.9,142.3-456.3c7.8-23.4-42.9-27.3-327.6-27.3H782.3l-46.8,132.6c-25.4,72.2-62.4,185.2-81.9,253.5l-35.1,120.9h341.2C1215.2-1262.3,1303-1268.2,1306.8-1285.7z M1689-2299.7c48.7-97.5,128.7-247.6,181.3-333.4c50.7-85.8,91.7-159.9,91.7-163.8c0-1.9-142.3-5.8-315.9-5.8l-317.8,1.9l-60.4,91.6c-93.6,140.4-148.2,232.1-249.6,419.2l-93.6,169.7H1264h337.3L1689-2299.7z M2293.5-3245.4c37-50.7,136.5-163.8,222.3-253.5l152.1-161.8H2389h-280.8l-177.4,163.8c-95.5,89.7-208.6,204.7-249.6,253.5l-72.2,89.7h308.1l308.1-1.9L2293.5-3245.4z M3291.8-4167.6c128.7-85.8,276.9-179.4,331.5-206.7c52.6-27.3,93.6-54.6,87.7-58.5c-13.7-15.6-284.7,62.4-501.1,142.3c-181.3,68.2-565.5,249.6-565.5,269.1c0,5.8,93.6,9.7,206.7,9.7h206.7L3291.8-4167.6z"/><path d="M5442.6,3980.9c-64.3-37-87.7-80-87.7-154c0-79.9,52.6-150.1,122.8-163.8c97.5-19.5,411.4-27.3,454.3-11.7c25.3,9.8,62.4,48.8,79.9,85.8c27.3,56.6,27.3,76,5.8,128.7c-13.7,33.2-48.8,72.1-78,87.7C5867.6,3990.7,5495.2,4012.1,5442.6,3980.9z"/><path d="M4272.6,3727.4c-95.5-40.9-177.4-76-179.4-76c-13.6,0-64.3-120.9-64.3-154c0-60.4,93.6-157.9,152.1-157.9c29.2,0,138.4,37.1,243.7,80c253.5,107.2,306.1,177.4,237.9,308.1C4608,3832.7,4512.5,3832.7,4272.6,3727.4z"/><path d="M6710,3622.1c-52.6-50.7-62.4-117-27.3-191.1c25.4-54.6,384.1-267.1,452.4-267.1c62.4,0,142.3,64.3,157.9,128.7c29.2,111.1-23.4,167.7-304.2,325.6C6871.8,3686.5,6772.4,3686.5,6710,3622.1z"/><path d="M3163.1,2926c-146.2-154-195-241.8-175.5-317.8c23.4-91.7,138.4-150.1,228.1-115c56.6,21.5,325.6,335.4,337.3,391.9c7.8,44.8-1.9,72.1-40.9,118.9c-42.9,52.6-66.3,62.4-132.6,62.4C3303.5,3066.4,3287.9,3056.7,3163.1,2926z"/><path d="M7819.5,2812.9c-58.5-23.4-105.3-95.5-105.3-161.8c0-60.4,228.1-388,294.4-423.1c95.6-52.6,251.5,35.1,251.5,140.4c0,107.2-253.5,434.8-351,452.4C7881.9,2826.6,7840.9,2822.7,7819.5,2812.9z"/><path d="M2521.6,1914c-62.4-58.5-189.1-360.7-189.1-456.3c0-134.5,169.6-218.4,269.1-130.6c58.5,48.8,202.8,427,189.1,493.3c-15.6,70.2-68.2,115-150.1,126.7C2587.9,1956.9,2562.6,1949.1,2521.6,1914z"/><path d="M8494.1,1629.4c-46.8-17.5-101.4-70.2-118.9-117c-9.7-27.3,1.9-103.3,40.9-234c74.1-255.4,74.1-257.4,138.4-288.6c81.9-42.9,130.6-35.1,197,31.2c54.6,54.6,58.5,66.3,46.8,150.1c-17.5,130.7-105.3,384.1-144.3,419.2C8615,1625.5,8535.1,1645,8494.1,1629.4z"/><path d="M2194,603.7c-54.6-42.9-70.2-97.5-83.8-300.3C2094.6,73.4,2116,7.1,2215.5-33.9c76-31.2,148.2-9.8,196.9,58.5c27.3,39,37,93.6,41,276.9c5.8,216.4,3.9,228.1-41,276.9C2359.8,634.9,2250.6,646.6,2194,603.7z"/><path d="M8648.2,241c-44.9-44.9-56.6-74.1-56.6-142.3c0-46.8-5.8-146.3-11.7-220.3c-11.7-128.7-9.7-142.4,40.9-200.8c70.2-83.8,163.8-85.8,245.7-5.8c56.6,56.5,56.6,60.5,56.6,280.8c0,124.8-5.8,239.8-11.7,257.4c-15.6,37.1-107.2,87.7-163.8,87.7C8724.2,297.6,8679.4,272.2,8648.2,241z"/><path d="M2291.5-772.9c-37-39-56.5-78-56.5-117c0-91.7,111.1-419.2,156-460.2c58.5-52.7,163.8-46.8,226.2,11.7c42.9,40.9,48.7,58.5,40.9,134.5c-3.9,48.8-31.2,163.8-60.4,259.3c-44.9,142.4-62.4,175.5-109.2,198.9C2404.6-702.7,2355.9-710.5,2291.5-772.9z"/><path d="M8443.5-1075.1c-42.9-31.2-202.8-407.5-202.8-475.8c0-23.4,21.4-64.3,46.8-95.6c58.5-68.2,185.2-76,243.7-15.6c48.7,50.7,177.4,378.3,177.4,452.4C8708.6-1084.9,8546.8-1003,8443.5-1075.1z"/><path d="M2857-1989.6c-42.9-33.1-76-99.4-76-154c0-52.6,95.5-200.8,218.4-335.4c68.2-76,99.4-95.5,146.2-95.5c120.9,0,202.8,97.5,173.5,204.7c-11.7,50.7-206.7,319.8-269.1,372.4C3005.2-1958.4,2901.9-1954.5,2857-1989.6z"/><path d="M7792.2-2262.6c-79.9-64.3-312-351-312-386.1c0-54.6,50.7-146.2,87.8-161.9c17.5-5.9,64.3-11.7,103.3-11.7c60.5,0,83.8,15.6,175.5,113.1c187.2,198.9,208.6,234,200.8,341.2c0,19.5-23.4,56.6-50.7,81.9C7946.2-2233.4,7842.9-2221.7,7792.2-2262.6z"/><path d="M3791-2978.2c-50.7-52.7-58.5-70.2-48.7-132.6c13.7-83.8,62.4-128.7,261.3-237.9c189.1-105.3,292.5-105.3,347.1,1.9c39,74.1,37,118.9-7.8,177.4c-50.7,62.4-380.2,249.6-442.6,249.6C3871-2919.7,3826.1-2943.1,3791-2978.2z"/><path d="M6632-3163.4c-74.1-37.1-146.3-66.3-159.9-68.3c-33.1,0-122.8-115-122.8-157.9c0-54.6,50.7-146.2,87.7-161.9c66.3-25.4,148.2-9.8,306.1,58.5c198.9,83.9,257.4,136.5,257.4,234c0,54.6-13.7,81.9-54.6,117C6873.8-3079.6,6797.7-3083.5,6632-3163.4z"/><path d="M5060.4-3444.2c-70.2-72.1-74.1-154.1-9.7-228.1c40.9-50.7,60.4-54.6,271-74.1c261.3-21.4,313.9-7.8,358.8,101.4c21.4,52.7,21.4,72.2-1.9,128.7c-15.6,37-44.9,76-64.4,85.8c-19.5,9.7-138.4,23.4-265.2,31.2l-230.1,11.7L5060.4-3444.2z"/></g></g>
</svg>