<?xml version="1.0" encoding="utf-8"?>
<!-- Generator: Adobe Illustrator 23.0.0, SVG Export Plug-In . SVG Version: 6.00 Build 0)  -->
<svg version="1.1" id="Layer_1" xmlns="http://www.w3.org/2000/svg" xmlns:xlink="http://www.w3.org/1999/xlink" x="0px" y="0px"
	 viewBox="0 0 980 997" style="enable-background:new 0 0 980 997;" xml:space="preserve">
<style type="text/css">
	.st0{fill:#150000;}
</style>
<title>ethereumCoin</title>
<g>
	<path d="M404.6,0.3C356,4.9,301.3,21.5,257.4,44.7c-42.9,22.8-71.2,44.1-110.2,83.1c-28.7,28.7-33.2,34.3-59.1,73.1
		c-13.1,19.5-40.4,67.5-40.4,70.8c0,0.8-2.9,8.6-6.6,17.2c-8,19.1-23,65.3-27.3,83.6C-14.3,497.7,0.8,628.9,55.8,740.1
		c48.6,97.5,120.9,171.8,211.4,216.4c60.7,30,123.1,43.3,187.2,40c36.3-2,34.7-2,71.2,0c170.2,8.6,332.8-102.4,409.7-279.2
		c31-71.4,44.8-139.8,44.8-220c-0.2-182.7-88.3-349.6-231.5-438.1c-45.2-28-95.5-46.8-148-55.4c-19.1-3.1-66.9-4.7-101.4-2.9
		c-8.6,0.4-31.4,0.2-50.7-0.4S409.5-0.1,404.6,0.3z M592,37.3c90.5,12.5,174.3,59.3,237.3,132.4C944.1,303.1,977.7,502.6,915.1,679
		c-4.5,12.5-14.5,35.5-22.3,51.1C839,838.7,751.7,915.5,645.8,947.5c-37.4,11.3-55.6,13.7-103.7,13.8c-49.5,0-68.3-2.9-113.7-17.7
		c-98.5-32.2-185.2-109.6-236.1-211c-67.1-133.8-72.4-301.8-13.5-439.1c50.9-119.1,140-204.9,249.8-240.8
		c22-7.2,53.8-14.4,74.5-17.2C519,33.4,572.1,34.4,592,37.3z M359.7,44.1c-1.6,1-11.1,6.6-20.9,12.5l-17.9,10.7h-17.2
		c-13.3-0.2-16.4-0.6-13.5-2.1c8.8-5.3,62.8-23,69.4-23C362.3,42.2,362.3,42.4,359.7,44.1z M250.4,127.6l-24.2,25.1l-30.2,0.2h-30.2
		l13.6-12.9c7.6-7,20.7-18.5,29.3-25.3l15.4-12.2h50.5L250.4,127.6z M194.8,193.5c-9,14-24.2,39.8-29.8,50.7l-6,12.3H92.4l3.3-6.4
		c6.2-12.3,17.2-29.8,28.5-45.8l11.5-16h62.6L194.8,193.5z M141.4,292.9c0,1-3.9,12.5-8.6,25.9l-8.6,24.4l-33.3,0.6
		c-27.3,0.4-33.3,0-33.3-2.1c0-2.3,10.5-31.6,16.6-46.8c1.2-2.9,4.9-3.3,34.3-3.3C126.5,291.6,141.4,292.2,141.4,292.9L141.4,292.9z
		 M115.4,379.7c-0.4,1.4-2.3,11.3-4.1,22c-2,10.7-3.7,21.5-4.3,23.8c-0.8,4.5-1.2,4.5-33.9,4.5c-18.1,0-33.3-0.5-33.7-1.5
		c-0.8-1.4,4.5-35.5,7.2-46l1.2-5.1h34.3C108.8,377.4,116.2,378,115.4,379.7L115.4,379.7z M103.5,469.2c-0.6,3.3-1.2,15.2-1.2,26.3
		v20.3H34.1v-23.2c0-12.9,0.6-24.6,1.2-26.3c1-2.7,6-3.1,35.3-3.1h34.1L103.5,469.2z M105.1,553.2c0.6,2.5,2,12.3,3.1,22
		c1.2,9.6,2.7,19.5,3.3,21.8l1,4.5H44.3l-1.2-5.5c-2.5-11.1-6.6-44.3-5.7-45.8c0.4-0.8,15.6-1.4,33.7-1.4
		C103.9,549,104.3,549,105.1,553.2L105.1,553.2z M120.7,639c2.7,9.4,13.3,43.3,14.2,45.6c0.8,2.3-4.3,2.7-32.8,2.7H68.2l-4.7-13.3
		c-2.5-7.2-6.2-18.5-8.2-25.3l-3.5-12.1H86C111.5,636.7,120.3,637.3,120.7,639L120.7,639z M158.9,740.5c4.9,9.8,12.9,24.8,18.1,33.3
		c5.1,8.6,9.2,16,9.2,16.4c0,0.2-14.2,0.6-31.6,0.6l-31.8-0.2l-6-9.2c-9.4-14-14.8-23.2-25-41.9l-9.4-17h67.7L158.9,740.5z
		 M219.3,835c3.7,5.1,13.6,16.4,22.2,25.3l15.2,16.2h-56L183,860.2c-9.6-9-20.9-20.5-25-25.3l-7.2-9h30.8l30.8,0.2L219.3,835z
		 M319.2,927.3c12.9,8.6,27.7,17.9,33.1,20.7c5.3,2.7,9.4,5.5,8.8,5.8c-1.4,1.6-28.5-6.2-50.1-14.2c-18.1-6.8-56.5-25-56.5-26.9
		c0-0.6,9.4-1,20.7-1h20.7L319.2,927.3z"/>
	<path d="M534.3,112.4c-6.4,3.7-8.8,8-8.8,15.4c0,8,5.3,15,12.3,16.4c9.8,1.9,41.1,2.7,45.4,1.2c2.5-1,6.2-4.9,8-8.6
		c2.7-5.7,2.7-7.6,0.6-12.9c-1.7-3.6-4.4-6.7-7.8-8.8C576.8,111.4,539.5,109.3,534.3,112.4z"/>
	<path d="M417.3,137.7c-9.5,4.1-17.7,7.6-17.9,7.6c-1.4,0-6.4,12.1-6.4,15.4c0,6,9.4,15.8,15.2,15.8c2.9,0,13.8-3.7,24.4-8
		c25.4-10.7,30.6-17.7,23.8-30.8C450.8,127.2,441.3,127.2,417.3,137.7z"/>
	<path d="M661,148.3c-5.3,5.1-6.2,11.7-2.7,19.1c2.5,5.5,38.4,26.7,45.2,26.7c6.2,0,14.2-6.4,15.8-12.9c2.9-11.1-2.3-16.8-30.4-32.6
		C677.2,141.8,667.2,141.8,661,148.3z"/>
	<path d="M306.3,217.9c-14.6,15.4-19.5,24.2-17.5,31.8c2.3,9.2,13.8,15,22.8,11.5c5.7-2.1,32.6-33.5,33.7-39.2
		c0.8-4.5-0.2-7.2-4.1-11.9c-4.3-5.3-6.6-6.2-13.3-6.2C320.4,203.8,318.8,204.8,306.3,217.9z"/>
	<path d="M772,229.2c-5.8,2.3-10.5,9.6-10.5,16.2c0,6,22.8,38.8,29.4,42.3c9.6,5.3,25.2-3.5,25.2-14c0-10.7-25.3-43.5-35.1-45.2
		C778,227.9,774.9,228.1,772,229.2z"/>
	<path d="M242.2,319.1c-6.2,5.9-18.9,36.1-18.9,45.6c0,13.5,17,21.8,26.9,13.1c5.9-4.9,20.3-42.7,18.9-49.3c-1.6-7-6.8-11.5-15-12.7
		C248.8,314.8,246.3,315.6,242.2,319.1z"/>
	<path d="M839.4,347.5c-4.7,1.8-10.1,7-11.9,11.7c-1,2.7,0.2,10.3,4.1,23.4c7.4,25.5,7.4,25.7,13.8,28.8c8.2,4.3,13.1,3.5,19.7-3.1
		c5.5-5.5,5.8-6.6,4.7-15c-1.8-13.1-10.5-38.4-14.4-41.9S843.5,346,839.4,347.5z"/>
	<path d="M209.4,450.1c-5.5,4.3-7,9.8-8.4,30c-1.6,23,0.6,29.6,10.5,33.7c7.6,3.1,14.8,1,19.7-5.8c2.7-3.9,3.7-9.4,4.1-27.7
		c0.6-21.6,0.4-22.8-4.1-27.7C226,447,215.1,445.8,209.4,450.1z"/>
	<path d="M854.8,486.4c-4.5,4.5-5.7,7.4-5.7,14.2c0,4.7-0.6,14.6-1.2,22c-1.2,12.9-1,14.2,4.1,20.1c7,8.4,16.4,8.6,24.6,0.6
		c5.7-5.7,5.7-6,5.7-28.1c0-12.5-0.6-24-1.2-25.7c-1.6-3.7-10.7-8.8-16.4-8.8C862.4,480.7,857.9,483.3,854.8,486.4z"/>
	<path d="M219.1,587.8c-3.7,3.9-5.6,7.8-5.6,11.7c0,9.2,11.1,41.9,15.6,46c5.9,5.3,16.4,4.7,22.6-1.2c4.3-4.1,4.9-5.8,4.1-13.5
		c-0.4-4.9-3.1-16.4-6-25.9c-4.5-14.2-6.2-17.5-10.9-19.9C230.5,580.8,225.6,581.5,219.1,587.8z"/>
	<path d="M834.3,618c-4.3,3.1-20.3,40.8-20.3,47.6c0,2.3,2.1,6.4,4.7,9.6c5.8,6.8,18.5,7.6,24.4,1.6c4.9-5.1,17.7-37.8,17.7-45.2
		C860.9,619,844.7,610.8,834.3,618z"/>
	<path d="M275.7,709.5c-4.6,3.8-7.3,9.4-7.6,15.4c0,5.3,9.5,20.1,21.8,33.5c6.8,7.6,9.9,9.5,14.6,9.5c12.1,0,20.3-9.8,17.4-20.5
		c-1.2-5.1-20.7-32-26.9-37.2C290.5,706.3,280.2,705.9,275.7,709.5z"/>
	<path d="M769.2,736.7c-8,6.4-31.2,35.1-31.2,38.6c0,5.5,5.1,14.6,8.8,16.2c3.4,0.8,6.9,1.2,10.3,1.2c6,0,8.4-1.6,17.5-11.3
		c18.7-19.9,20.9-23.4,20.1-34.1c0-2-2.3-5.7-5.1-8.2C784.6,733.8,774.3,732.6,769.2,736.7z"/>
	<path d="M369.1,808.3c-5.1,5.3-5.9,7-4.9,13.3c1.4,8.4,6.2,12.9,26.1,23.8c18.9,10.5,29.3,10.5,34.7-0.2c3.9-7.4,3.7-11.9-0.8-17.7
		c-5.1-6.2-38-25-44.3-25C377.1,802.5,372.6,804.8,369.1,808.3z"/>
	<path d="M653.2,826.8c-7.4,3.7-14.6,6.6-16,6.8c-3.3,0-12.3,11.5-12.3,15.8c0,5.5,5.1,14.6,8.8,16.2c6.6,2.5,14.8,1,30.6-5.8
		c19.9-8.4,25.7-13.7,25.7-23.4c0-5.5-1.4-8.2-5.5-11.7C677.4,818.5,669.8,818.8,653.2,826.8z"/>
	<path d="M496,854.9c-7,7.2-7.4,15.4-1,22.8c4.1,5.1,6,5.5,27.1,7.4c26.1,2.1,31.4,0.8,35.9-10.1c2.1-5.3,2.1-7.2-0.2-12.9
		c-1.6-3.7-4.5-7.6-6.4-8.6s-13.8-2.3-26.5-3.1l-23-1.2L496,854.9z"/>
</g>
<g>
	<g id="Layer_1-2">
		<g id="_1421394342400">
			<polygon points="503,189.9 500.7,204.1 553.2,602.5 557.7,606 728.3,472.4 			"/>
			<polygon points="503,189.9 358.4,521 557.7,606 532.3,412.6 			"/>
			<polygon points="562.3,641 560.4,644.1 579.1,786 582.3,792.4 733,507.4 			"/>
			<polygon points="582.3,792.4 562.3,641 363,556.1 			"/>
			<polygon class="st0" points="557.7,606 728.3,472.4 532.3,412.6 			"/>
			<polygon class="st0" points="358.4,521 557.7,606 532.3,412.6 			"/>
		</g>
	</g>
</g>
</svg>
