<svg xmlns="http://www.w3.org/2000/svg" viewBox="0 0 1000 1000"><title>iotaCoin</title><g id="Layer_1" data-name="Layer 1"><path d="M414.59,1.79C366,6.47,311.25,23,267.37,46.25c-42.9,22.81-71.17,44.07-110.17,83.07-28.66,28.66-33.15,34.32-59.08,73.12-13.06,19.5-40.36,67.47-40.36,70.78,0,.78-2.92,8.58-6.63,17.16-8,19.11-23,65.32-27.3,83.65C-4.25,499.21,10.77,630.43,65.75,741.58,114.3,839.07,186.64,913.36,277.12,958q91,45,187.19,40c36.27-2,34.71-2,71.17,0,170.22,8.58,332.85-102.37,409.67-279.22C976.16,647.4,990,579,990,498.82c-.19-182.71-88.33-349.62-231.45-438.14a403.89,403.89,0,0,0-148-55.38C591.44,2.18,543.67.62,509.16,2.38c-8.58.39-31.39.2-50.7-.39S419.46,1.4,414.59,1.79ZM602,38.84c90.47,12.48,174.32,59.28,237.3,132.4,114.85,133.37,148.39,332.84,85.8,509.31C920.59,693,910.64,716,902.84,731.64,849,840.25,761.67,917.07,655.79,949.05c-37.44,11.31-55.57,13.65-103.73,13.84-49.53,0-68.25-2.92-113.68-17.74-98.47-32.17-185.24-109.58-236.13-211C135.17,600.4,129.9,432.32,188.79,295.05c50.89-119.14,140-204.93,249.78-240.81,22-7.21,53.82-14.43,74.49-17.16C529.05,34.94,582.08,35.91,602,38.84ZM369.74,45.66c-1.56,1-11.11,6.63-20.86,12.48L330.94,68.86H313.78c-13.26-.2-16.38-.58-13.45-2.14,8.77-5.26,62.79-23,69.42-23C372.28,43.71,372.28,43.91,369.74,45.66ZM260.35,129.12l-24.18,25.15-30.22.2H175.73l13.65-12.87c7.6-7,20.67-18.52,29.25-25.35L234,104h50.5ZM204.78,195c-9,14-24.18,39.78-29.83,50.7l-6,12.28H102.41l3.32-6.43c6.24-12.29,17.16-29.83,28.47-45.82l11.5-16h62.59Zm-53.43,99.45c0,1-3.9,12.48-8.58,25.93l-8.58,24.37-33.34.58c-27.3.39-33.34,0-33.34-2.14,0-2.34,10.53-31.59,16.57-46.8,1.17-2.92,4.87-3.32,34.32-3.32C136.53,293.1,151.35,293.69,151.35,294.47Zm-25.93,86.77c-.39,1.36-2.34,11.31-4.09,22-2,10.72-3.7,21.45-4.29,23.79-.78,4.48-1.17,4.48-33.93,4.48C65,431.54,49.77,431,49.38,430c-.78-1.37,4.48-35.49,7.21-46l1.17-5.07H92.08C118.79,378.9,126.2,379.48,125.42,381.24Zm-11.89,89.5c-.59,3.31-1.17,15.21-1.17,26.32v20.28H44.11v-23.2c0-12.87.58-24.57,1.17-26.32,1-2.73,6-3.12,35.29-3.12H114.7Zm1.56,84c.59,2.53,2,12.28,3.12,22,1.17,9.56,2.73,19.5,3.32,21.84l1,4.48H54.25l-1.17-5.46c-2.54-11.12-6.63-44.26-5.65-45.82.39-.78,15.6-1.37,33.73-1.37C113.92,550.49,114.31,550.49,115.09,554.78Zm15.59,85.79c2.73,9.36,13.26,43.29,14.23,45.63.78,2.34-4.29,2.73-32.76,2.73H78.23l-4.68-13.26c-2.54-7.22-6.24-18.52-8.19-25.35l-3.51-12.09H96C121.52,638.23,130.3,638.82,130.68,640.57ZM168.9,742c4.87,9.75,12.87,24.76,18.13,33.34,5.07,8.58,9.17,16,9.17,16.38,0,.19-14.23.58-31.59.58l-31.78-.19-6-9.16c-9.36-14-14.82-23.21-25-41.92l-9.36-17h67.66Zm60.45,94.57c3.7,5.07,13.65,16.38,22.23,25.35l15.21,16.18h-56l-17.74-16.38c-9.55-9-20.86-20.47-25-25.35l-7.22-9h30.81l30.81.19Zm99.83,92.22c12.87,8.58,27.69,17.94,33.15,20.67,5.26,2.73,9.36,5.46,8.77,5.85-1.37,1.56-28.47-6.24-50.11-14.23-18.13-6.82-56.55-25-56.55-26.91,0-.58,9.36-1,20.67-1h20.67Z"/><path d="M544.26,113.91c-6.43,3.7-8.77,8-8.77,15.4,0,8,5.26,15,12.28,16.38,9.75,1.95,41.14,2.73,45.43,1.17,2.53-1,6.24-4.88,8-8.58,2.73-5.66,2.73-7.6.58-12.87a20.16,20.16,0,0,0-7.8-8.77C586.76,112.93,549.52,110.79,544.26,113.91Z"/><path d="M427.26,139.26c-9.55,4.09-17.74,7.6-17.94,7.6-1.36,0-6.43,12.09-6.43,15.4,0,6,9.36,15.79,15.21,15.79,2.92,0,13.84-3.71,24.37-8,25.35-10.72,30.61-17.74,23.79-30.81C460.8,128.73,451.25,128.73,427.26,139.26Z"/><path d="M671,149.79c-5.26,5.07-6.24,11.7-2.73,19.11,2.54,5.46,38.41,26.71,45.24,26.71,6.24,0,14.23-6.43,15.79-12.87,2.92-11.11-2.34-16.77-30.42-32.56C687.18,143.35,677.24,143.35,671,149.79Z"/><path d="M316.31,219.4c-14.62,15.4-19.5,24.18-17.55,31.78,2.34,9.17,13.84,15,22.81,11.5,5.66-2.15,32.56-33.54,33.73-39.19.78-4.48-.19-7.21-4.09-11.89-4.29-5.26-6.63-6.24-13.26-6.24C330.35,205.36,328.79,206.33,316.31,219.4Z"/><path d="M782,230.71c-5.85,2.34-10.53,9.55-10.53,16.18,0,6,22.81,38.8,29.44,42.31,9.56,5.26,25.15-3.51,25.15-14,0-10.72-25.35-43.48-35.1-45.24A17.08,17.08,0,0,0,782,230.71Z"/><path d="M252.16,320.6c-6.24,5.85-18.91,36.07-18.91,45.63,0,13.45,17,21.84,26.91,13.06,5.85-4.88,20.28-42.7,18.91-49.33-1.56-7-6.82-11.5-15-12.67C258.79,316.31,256.26,317.09,252.16,320.6Z"/><path d="M849.41,349.06c-4.68,1.75-10.14,7-11.89,11.7-1,2.73.19,10.33,4.09,23.4C849,409.7,849,409.9,855.45,413c8.19,4.29,13.06,3.51,19.7-3.12,5.46-5.46,5.85-6.63,4.68-15-1.75-13.07-10.53-38.41-14.43-41.92S853.51,347.5,849.41,349.06Z"/><path d="M219.4,451.63c-5.46,4.29-7,9.75-8.38,30-1.56,23,.58,29.63,10.53,33.73,7.6,3.12,14.82,1,19.69-5.85,2.73-3.9,3.7-9.36,4.1-27.69.58-21.64.39-22.81-4.1-27.69C236,448.51,225.06,447.34,219.4,451.63Z"/><path d="M864.82,487.9c-4.49,4.49-5.66,7.41-5.66,14.23,0,4.68-.58,14.63-1.17,22-1.17,12.87-1,14.24,4.09,20.08,7,8.38,16.38,8.58,24.57.58,5.66-5.65,5.66-6.05,5.66-28.08,0-12.48-.58-24-1.17-25.74-1.56-3.71-10.72-8.77-16.38-8.77C872.42,482.24,867.94,484.78,864.82,487.9Z"/><path d="M229.15,589.29c-3.7,3.9-5.65,7.8-5.65,11.7,0,9.17,11.11,41.92,15.6,46,5.85,5.27,16.38,4.68,22.62-1.17,4.29-4.09,4.87-5.85,4.09-13.45-.39-4.88-3.12-16.38-6-25.93-4.49-14.24-6.24-17.55-10.92-19.89C240.46,582.27,235.59,583.05,229.15,589.29Z"/><path d="M844.35,619.51c-4.29,3.12-20.28,40.75-20.28,47.58,0,2.34,2.14,6.43,4.68,9.56,5.85,6.82,18.52,7.6,24.37,1.56,4.87-5.07,17.74-37.83,17.74-45.24C870.86,620.49,854.68,612.3,844.35,619.51Z"/><path d="M285.7,711a21.39,21.39,0,0,0-7.6,15.4c0,5.26,9.55,20.08,21.84,33.54,6.82,7.6,9.94,9.55,14.62,9.55,12.09,0,20.28-9.75,17.35-20.47-1.17-5.07-20.67-32-26.91-37.24C300.52,707.84,290.19,707.45,285.7,711Z"/><path d="M779.22,738.26c-8,6.43-31.2,35.1-31.2,38.61,0,5.46,5.07,14.62,8.78,16.19a42.69,42.69,0,0,0,10.33,1.17c6,0,8.38-1.56,17.55-11.31,18.72-19.89,20.86-23.4,20.08-34.12,0-1.95-2.34-5.66-5.07-8.19C794.62,735.34,784.29,734.17,779.22,738.26Z"/><path d="M379.1,809.82c-5.07,5.27-5.85,7-4.87,13.26,1.37,8.38,6.24,12.87,26.13,23.79,18.91,10.53,29.25,10.53,34.71-.19,3.9-7.41,3.7-11.89-.78-17.74-5.07-6.24-38-25-44.26-25C387.1,804,382.61,806.31,379.1,809.82Z"/><path d="M663.2,828.34c-7.41,3.71-14.63,6.63-16,6.83-3.31,0-12.28,11.5-12.28,15.79,0,5.46,5.07,14.62,8.77,16.19,6.63,2.54,14.82,1,30.61-5.85,19.89-8.39,25.74-13.65,25.74-23.4,0-5.46-1.37-8.19-5.46-11.7C687.38,820,679.77,820.35,663.2,828.34Z"/><path d="M506,856.42c-7,7.21-7.41,15.41-1,22.81,4.09,5.07,6,5.46,27.1,7.41,26.13,2.14,31.39.78,35.88-10.14,2.14-5.27,2.14-7.22-.19-12.87-1.56-3.7-4.49-7.6-6.44-8.58s-13.84-2.34-26.52-3.12l-23-1.17Z"/></g><g id="Layer_2" data-name="Layer 2"><g id="Layer_1-2" data-name="Layer 1-2"><path d="M628.27,275.45A30.53,30.53,0,1,0,592,252.73,30.32,30.32,0,0,0,628.27,275.45Zm26.86,75.17a25.66,25.66,0,0,0,18.84-31h0a25.46,25.46,0,1,0-18.84,31Zm70.37-6.22a25.8,25.8,0,1,0-30.65-19.27A25.62,25.62,0,0,0,725.5,344.4Zm7.42,68a22,22,0,1,0-26.2-16.45A21.87,21.87,0,0,0,732.92,412.38Zm59.54,8.55a22.18,22.18,0,1,0-26.39-16.56h0A22,22,0,0,0,792.46,420.93Zm-130.11-1.32a22.39,22.39,0,0,0,16.49-27h0v0a22.27,22.27,0,1,0-16.48,27.08Zm-7.23,57.19A18.9,18.9,0,0,0,646.5,440l-.07,0a18.9,18.9,0,0,0,8.69,36.78Zm70.34-6.8a18.63,18.63,0,0,0,13.7-22.51h0v-.05A18.51,18.51,0,1,0,725.28,470h0l.18,0Zm59.36,8.51a18.38,18.38,0,1,0-.08,0ZM767.4,524.72a16,16,0,1,0-19-11.94A15.89,15.89,0,0,0,767.4,524.72Zm-59.54-8.11a16.38,16.38,0,1,0-19.46-12.23A16.29,16.29,0,0,0,707.86,516.61Zm-70.36,6.33a16.22,16.22,0,0,0-7.43-31.58h0A16.22,16.22,0,0,0,637.48,523Zm46.69,28.53a14.07,14.07,0,0,0-6.36-27.41l-.11,0A14.07,14.07,0,0,0,684,551.5Zm59.6,8.47a14.22,14.22,0,1,0-17.11-10.57A14.16,14.16,0,0,0,743.79,559.94Zm-26.95,23.28a11.25,11.25,0,1,0-13.38-8.4A11.19,11.19,0,0,0,716.84,583.22Zm-27.09,15.47a10.09,10.09,0,0,0,7.42-12.19h0v0a10,10,0,1,0-19.52,4.58h0v0a10,10,0,0,0,11.9,7.65Zm-32.23-22.47a12.09,12.09,0,1,0-14.4-9A12,12,0,0,0,657.52,576.22Zm-43.79-18.15A14.07,14.07,0,1,0,597,547.58,14,14,0,0,0,613.73,558.07ZM765.2,703.43a30.38,30.38,0,1,0-36.1-22.69,30.17,30.17,0,0,0,36.1,22.69Zm-82.81-20a25.31,25.31,0,1,0-30.09-18.9A25.12,25.12,0,0,0,682.39,683.47Zm-29.47,64.14a25.55,25.55,0,1,0-30.36-19.09,25.31,25.31,0,0,0,30.36,19.09Zm-36.28-96.78a22,22,0,0,0,16.14-26.54h0a22,22,0,0,0-26.31-16.51h0a22,22,0,0,0-16.14,26.53h0a22,22,0,0,0,26.31,16.52Zm-29.2,64.85a21.76,21.76,0,1,0-.13,0Zm-36.64,48a22,22,0,1,0-26.13-16.4,21.82,21.82,0,0,0,26.13,16.4ZM501.53,724.1a18.75,18.75,0,1,0-22.21-13.73A18.68,18.68,0,0,0,501.53,724.1Zm36.69-48.17a17.66,17.66,0,1,0-.07,0ZM567.74,611a18.63,18.63,0,0,0,13.7-22.51h0v0a18.51,18.51,0,1,0-36,8.46h0v0A18.64,18.64,0,0,0,567.74,611Zm-63.19,22.9a16.29,16.29,0,1,0-19.39-12.16A16.16,16.16,0,0,0,504.55,633.92Zm-36.49,48a16,16,0,0,0,11.79-19.31h0v0a16,16,0,0,0-19.11-12.06l-.09,0a16,16,0,0,0-11.79,19.32h0v0a16,16,0,0,0,19.19,12Zm-20.73-41.22a13.92,13.92,0,1,0-16.6-10.38A13.87,13.87,0,0,0,447.33,640.66Zm-9.43-38.24A11.89,11.89,0,0,0,446.61,588h0a11.79,11.79,0,1,0-8.71,14.39Zm-1.22-33.36a10.18,10.18,0,1,0-12.09-7.6A10.09,10.09,0,0,0,436.68,569.06Zm37.79-14.55a12.09,12.09,0,1,0-14.4-9A12,12,0,0,0,474.47,554.51Zm38.91-26.82A14.07,14.07,0,0,0,507,500.28l-.11,0a14.07,14.07,0,0,0,6.4,27.41h0Zm20.47,41.06a15.11,15.11,0,1,0-.07,0Zm-49.78,24a14,14,0,1,0-16.63-10.54h0l0,.07a13.79,13.79,0,0,0,16.46,10.5h0l.15,0ZM331.15,607.49a30.23,30.23,0,1,0-36-22.54,30.05,30.05,0,0,0,36,22.54Zm53.51-68.09A25.94,25.94,0,1,0,353.82,520v0a25.72,25.72,0,0,0,30.83,19.37Zm-41-58.69A25.79,25.79,0,1,0,313,461.4h0l0,.05a25.53,25.53,0,0,0,30.51,19.29ZM399.94,435a22.11,22.11,0,1,0-26.31-16.51A22,22,0,0,0,399.94,435Zm41.22,58.49A22.19,22.19,0,1,0,414.78,477,22,22,0,0,0,441.16,493.51Zm54.66-27.07a18.75,18.75,0,0,0,13.75-22.66h0a18.59,18.59,0,1,0-36.32,8l.13.55h0a18.68,18.68,0,0,0,22.31,14.15Zm50-11.63a16.22,16.22,0,1,0-19.51-12.06,16.15,16.15,0,0,0,19.51,12.06Zm43.52-.24A13.7,13.7,0,1,0,573,444.35,13.64,13.64,0,0,0,589.32,454.57Zm-6.11-49.9A11.94,11.94,0,1,0,569,395.76,11.88,11.88,0,0,0,583.21,404.67Zm-35.5-8.42a15,15,0,1,0-.07,0Zm-43.07,0a16.14,16.14,0,1,0-19.2-12.05,16.05,16.05,0,0,0,19.2,12.05h0ZM454.8,408.06A18.9,18.9,0,1,0,432.3,394,18.77,18.77,0,0,0,454.8,408.06Zm-78-30.13a21.42,21.42,0,1,0-25.47-16A21.23,21.23,0,0,0,376.78,377.93Zm54.82-26.28a18.9,18.9,0,1,0-22.5-14.11A18.79,18.79,0,0,0,431.6,351.65Zm50-11.56a16.29,16.29,0,1,0-19.39-12.2h0v0A16.22,16.22,0,0,0,481.58,340.09Zm43.2-.23a13.7,13.7,0,1,0-16.48-10.19A13.59,13.59,0,0,0,524.78,339.86Zm35.33,8.91a12.24,12.24,0,1,0-14.58-9.14A12.18,12.18,0,0,0,560.11,348.77Zm27.52,13.3A10,10,0,0,0,595,350h0v0a10,10,0,0,0-12-7.54h0a10,10,0,0,0-7.36,12.08h0v0a9.94,9.94,0,0,0,11.84,7.57h0l.15,0Z"/></g></g></svg>