<svg xmlns="http://www.w3.org/2000/svg" viewBox="0 0 980 996.97"><defs><style>.cls-1{fill:#fff;}</style></defs><title>litecoinCoin</title><g id="Layer_1" data-name="Layer 1"><path d="M414.59,1.79C366,6.47,311.25,23,267.37,46.25c-42.9,22.81-71.17,44.07-110.17,83.07-28.66,28.66-33.15,34.32-59.08,73.12-13.06,19.5-40.36,67.47-40.36,70.78,0,.78-2.92,8.58-6.63,17.16-8,19.11-23,65.32-27.3,83.65C-4.25,499.21,10.77,630.43,65.75,741.58,114.3,839.07,186.64,913.36,277.12,958q91,45,187.19,40c36.27-2,34.71-2,71.17,0,170.22,8.58,332.85-102.37,409.67-279.22C976.16,647.4,990,579,990,498.82c-.19-182.71-88.33-349.62-231.45-438.14a403.89,403.89,0,0,0-148-55.38C591.44,2.18,543.67.62,509.16,2.38c-8.58.39-31.39.2-50.7-.39S419.46,1.4,414.59,1.79ZM602,38.84c90.47,12.48,174.32,59.28,237.3,132.4,114.85,133.37,148.39,332.84,85.8,509.31C920.59,693,910.64,716,902.84,731.64,849,840.25,761.67,917.07,655.79,949.05c-37.44,11.31-55.57,13.65-103.73,13.84-49.53,0-68.25-2.92-113.68-17.74-98.47-32.17-185.24-109.58-236.13-211C135.17,600.4,129.9,432.32,188.79,295.05c50.89-119.14,140-204.93,249.78-240.81,22-7.21,53.82-14.43,74.49-17.16C529.05,34.94,582.08,35.91,602,38.84ZM369.74,45.66c-1.56,1-11.11,6.63-20.86,12.48L330.94,68.86H313.78c-13.26-.2-16.38-.58-13.45-2.14,8.77-5.26,62.79-23,69.42-23C372.28,43.71,372.28,43.91,369.74,45.66ZM260.35,129.12l-24.18,25.15-30.22.2H175.73l13.65-12.87c7.6-7,20.67-18.52,29.25-25.35L234,104h50.5ZM204.78,195c-9,14-24.18,39.78-29.83,50.7l-6,12.28H102.41l3.32-6.43c6.24-12.29,17.16-29.83,28.47-45.82l11.5-16h62.59Zm-53.43,99.45c0,1-3.9,12.48-8.58,25.93l-8.58,24.37-33.34.58c-27.3.39-33.34,0-33.34-2.14,0-2.34,10.53-31.59,16.57-46.8,1.17-2.92,4.87-3.32,34.32-3.32C136.53,293.1,151.35,293.69,151.35,294.47Zm-25.93,86.77c-.39,1.36-2.34,11.31-4.09,22-2,10.72-3.7,21.45-4.29,23.79-.78,4.48-1.17,4.48-33.93,4.48C65,431.54,49.77,431,49.38,430c-.78-1.37,4.48-35.49,7.21-46l1.17-5.07H92.08C118.79,378.9,126.2,379.48,125.42,381.24Zm-11.89,89.5c-.59,3.31-1.17,15.21-1.17,26.32v20.28H44.11v-23.2c0-12.87.58-24.57,1.17-26.32,1-2.73,6-3.12,35.29-3.12H114.7Zm1.56,84c.59,2.53,2,12.28,3.12,22,1.17,9.56,2.73,19.5,3.32,21.84l1,4.48H54.25l-1.17-5.46c-2.54-11.12-6.63-44.26-5.65-45.82.39-.78,15.6-1.37,33.73-1.37C113.92,550.49,114.31,550.49,115.09,554.78Zm15.59,85.79c2.73,9.36,13.26,43.29,14.23,45.63.78,2.34-4.29,2.73-32.76,2.73H78.23l-4.68-13.26c-2.54-7.22-6.24-18.52-8.19-25.35l-3.51-12.09H96C121.52,638.23,130.3,638.82,130.68,640.57ZM168.9,742c4.87,9.75,12.87,24.76,18.13,33.34,5.07,8.58,9.17,16,9.17,16.38,0,.19-14.23.58-31.59.58l-31.78-.19-6-9.16c-9.36-14-14.82-23.21-25-41.92l-9.36-17h67.66Zm60.45,94.57c3.7,5.07,13.65,16.38,22.23,25.35l15.21,16.18h-56l-17.74-16.38c-9.55-9-20.86-20.47-25-25.35l-7.22-9h30.81l30.81.19Zm99.83,92.22c12.87,8.58,27.69,17.94,33.15,20.67,5.26,2.73,9.36,5.46,8.77,5.85-1.37,1.56-28.47-6.24-50.11-14.23-18.13-6.82-56.55-25-56.55-26.91,0-.58,9.36-1,20.67-1h20.67Z" transform="translate(-10 -1.52)"/><path d="M544.26,113.91c-6.43,3.7-8.77,8-8.77,15.4,0,8,5.26,15,12.28,16.38,9.75,1.95,41.14,2.73,45.43,1.17,2.53-1,6.24-4.88,8-8.58,2.73-5.66,2.73-7.6.58-12.87a20.16,20.16,0,0,0-7.8-8.77C586.76,112.93,549.52,110.79,544.26,113.91Z" transform="translate(-10 -1.52)"/><path d="M427.26,139.26c-9.55,4.09-17.74,7.6-17.94,7.6-1.36,0-6.43,12.09-6.43,15.4,0,6,9.36,15.79,15.21,15.79,2.92,0,13.84-3.71,24.37-8,25.35-10.72,30.61-17.74,23.79-30.81C460.8,128.73,451.25,128.73,427.26,139.26Z" transform="translate(-10 -1.52)"/><path d="M671,149.79c-5.26,5.07-6.24,11.7-2.73,19.11,2.54,5.46,38.41,26.71,45.24,26.71,6.24,0,14.23-6.43,15.79-12.87,2.92-11.11-2.34-16.77-30.42-32.56C687.18,143.35,677.24,143.35,671,149.79Z" transform="translate(-10 -1.52)"/><path d="M316.31,219.4c-14.62,15.4-19.5,24.18-17.55,31.78,2.34,9.17,13.84,15,22.81,11.5,5.66-2.15,32.56-33.54,33.73-39.19.78-4.48-.19-7.21-4.09-11.89-4.29-5.26-6.63-6.24-13.26-6.24C330.35,205.36,328.79,206.33,316.31,219.4Z" transform="translate(-10 -1.52)"/><path d="M782,230.71c-5.85,2.34-10.53,9.55-10.53,16.18,0,6,22.81,38.8,29.44,42.31,9.56,5.26,25.15-3.51,25.15-14,0-10.72-25.35-43.48-35.1-45.24A17.08,17.08,0,0,0,782,230.71Z" transform="translate(-10 -1.52)"/><path d="M252.16,320.6c-6.24,5.85-18.91,36.07-18.91,45.63,0,13.45,17,21.84,26.91,13.06,5.85-4.88,20.28-42.7,18.91-49.33-1.56-7-6.82-11.5-15-12.67C258.79,316.31,256.26,317.09,252.16,320.6Z" transform="translate(-10 -1.52)"/><path d="M849.41,349.06c-4.68,1.75-10.14,7-11.89,11.7-1,2.73.19,10.33,4.09,23.4C849,409.7,849,409.9,855.45,413c8.19,4.29,13.06,3.51,19.7-3.12,5.46-5.46,5.85-6.63,4.68-15-1.75-13.07-10.53-38.41-14.43-41.92S853.51,347.5,849.41,349.06Z" transform="translate(-10 -1.52)"/><path d="M219.4,451.63c-5.46,4.29-7,9.75-8.38,30-1.56,23,.58,29.63,10.53,33.73,7.6,3.12,14.82,1,19.69-5.85,2.73-3.9,3.7-9.36,4.1-27.69.58-21.64.39-22.81-4.1-27.69C236,448.51,225.06,447.34,219.4,451.63Z" transform="translate(-10 -1.52)"/><path d="M864.82,487.9c-4.49,4.49-5.66,7.41-5.66,14.23,0,4.68-.58,14.63-1.17,22-1.17,12.87-1,14.24,4.09,20.08,7,8.38,16.38,8.58,24.57.58,5.66-5.65,5.66-6.05,5.66-28.08,0-12.48-.58-24-1.17-25.74-1.56-3.71-10.72-8.77-16.38-8.77C872.42,482.24,867.94,484.78,864.82,487.9Z" transform="translate(-10 -1.52)"/><path d="M229.15,589.29c-3.7,3.9-5.65,7.8-5.65,11.7,0,9.17,11.11,41.92,15.6,46,5.85,5.27,16.38,4.68,22.62-1.17,4.29-4.09,4.87-5.85,4.09-13.45-.39-4.88-3.12-16.38-6-25.93-4.49-14.24-6.24-17.55-10.92-19.89C240.46,582.27,235.59,583.05,229.15,589.29Z" transform="translate(-10 -1.52)"/><path d="M844.35,619.51c-4.29,3.12-20.28,40.75-20.28,47.58,0,2.34,2.14,6.43,4.68,9.56,5.85,6.82,18.52,7.6,24.37,1.56,4.87-5.07,17.74-37.83,17.74-45.24C870.86,620.49,854.68,612.3,844.35,619.51Z" transform="translate(-10 -1.52)"/><path d="M285.7,711a21.39,21.39,0,0,0-7.6,15.4c0,5.26,9.55,20.08,21.84,33.54,6.82,7.6,9.94,9.55,14.62,9.55,12.09,0,20.28-9.75,17.35-20.47-1.17-5.07-20.67-32-26.91-37.24C300.52,707.84,290.19,707.45,285.7,711Z" transform="translate(-10 -1.52)"/><path d="M779.22,738.26c-8,6.43-31.2,35.1-31.2,38.61,0,5.46,5.07,14.62,8.78,16.19a42.69,42.69,0,0,0,10.33,1.17c6,0,8.38-1.56,17.55-11.31,18.72-19.89,20.86-23.4,20.08-34.12,0-1.95-2.34-5.66-5.07-8.19C794.62,735.34,784.29,734.17,779.22,738.26Z" transform="translate(-10 -1.52)"/><path d="M379.1,809.82c-5.07,5.27-5.85,7-4.87,13.26,1.37,8.38,6.24,12.87,26.13,23.79,18.91,10.53,29.25,10.53,34.71-.19,3.9-7.41,3.7-11.89-.78-17.74-5.07-6.24-38-25-44.26-25C387.1,804,382.61,806.31,379.1,809.82Z" transform="translate(-10 -1.52)"/><path d="M663.2,828.34c-7.41,3.71-14.63,6.63-16,6.83-3.31,0-12.28,11.5-12.28,15.79,0,5.46,5.07,14.62,8.77,16.19,6.63,2.54,14.82,1,30.61-5.85,19.89-8.39,25.74-13.65,25.74-23.4,0-5.46-1.37-8.19-5.46-11.7C687.38,820,679.77,820.35,663.2,828.34Z" transform="translate(-10 -1.52)"/><path d="M506,856.42c-7,7.21-7.41,15.41-1,22.81,4.09,5.07,6,5.46,27.1,7.41,26.13,2.14,31.39.78,35.88-10.14,2.14-5.27,2.14-7.22-.19-12.87-1.56-3.7-4.49-7.6-6.44-8.58s-13.84-2.34-26.52-3.12l-23-1.17Z" transform="translate(-10 -1.52)"/></g><g id="Layer_2" data-name="Layer 2"><circle cx="552.75" cy="482.24" r="242.93"/><path class="cls-1" d="M461.18,231C321.58,287.08,253.88,445.72,310,585.33s214.74,207.3,354.34,151.21S871.62,521.8,815.52,382.2h0C760,242.84,602,174.87,462.65,230.39h0ZM570.47,490.61l9.34,99.32,140.78-56.56a7.65,7.65,0,0,1,10.09,3.89h0l.94,2.33,4.73,47.15a9.83,9.83,0,0,1-6.48,10.42L514.43,683.73,501.11,546.2l-35.48,28.47-2.13-31.84L499,514.36l-18.55-193a10,10,0,0,1,6.48-10.42L541.38,289a7.64,7.64,0,0,1,10.09,3.9h0l.93,2.32L568.1,458.15l35.47-28.47,3.24,32.82Z" transform="translate(-10 -1.52)"/></g></svg>